<svg xmlns="http://www.w3.org/2000/svg" width="97" height="100" viewBox="0 0 97 100">
    <path fill="#1975FF" d="M12.562 28.679H5.354v1.2h7.208v-1.2zm0 4.054H5.354v-1.201h7.208v1.2zm0 2.853H5.354v-1.202h7.208v1.202zM1 26.126v39.79c0 1.501 1.201 2.853 2.853 2.853h10.21c.3 0 .6 0 .901-.15v30.48h37.087v-5.405c-.15-4.805-4.054-8.709-8.859-8.709h-.15V61.862l14.114-14.114-1.201-1.201c2.402-3.304 2.252-7.808-.75-10.661l-.601-.6-6.307 6.306-5.105 5.105v-1.802c0-2.853-.75-5.406-2.252-7.808.3-.15.45-.3.75-.45l.301-.15.15-.15c.15-.15.3-.15.45-.301.601-.45 1.202-.9 1.802-1.501l.15-.15c2.103-1.953 3.904-4.205 4.955-6.757v-.15c.15-.3.15-.451.3-.751 0-.15.15-.15.15-.3.151-.15.151-.451.301-.601 0-.15.15-.3.15-.45.15-.3.15-.601.3-.902 0-.3.15-.45.15-.75 0-.15 0-.3.151-.45 0-.301.15-.451.15-.751v-.45-.752-.3-1.201-.901-.45-.451-.45-.3c0-.15 0-.451-.15-.601v-.15c-.3-1.352-.6-2.703-1.201-3.904v-.15c-.15-.15-.15-.451-.3-.601 0-.15-.15-.15-.15-.3-.15-.15-.15-.3-.301-.45 0-.151-.15-.301-.15-.451 0-.15-.15-.3-.15-.3-.15-.15-.3-.451-.45-.601v-.15c-.451-.751-1.052-1.502-1.652-2.253l-.3-.3C42.591 2.703 37.035 0 30.88 0 19.619 0 10.61 8.859 10.61 19.82c0 1.201.15 2.402.3 3.453H3.853C2.2 23.273 1 24.625 1 26.126zm27.628-6.757c0-3.753 1.05-5.705 1.801-6.456 0 0 .15-.15.15-.3l.15-.15c.902-.901 4.505-3.604 13.364-3.604h1.502c.3.3.45.6.75.9.15.15.3.451.45.601v.15c.15.15.301.451.301.601 0 0 0 .15.15.15.15.15.15.3.3.45.15.301.3.601.451.751v.15c.15.15.15.451.3.601v.15c.15.15.15.45.3.601.3.9.601 1.802.751 2.703v.15c0 .15 0 .3.15.6v4.955c0 .15 0 .45-.15.601v.45c0 .15-.15.45-.15.601 0 .15 0 .3-.15.45 0 .3-.15.45-.15.751-.15.3-.15.45-.3.751 0 .15 0 .15-.15.3s-.15.45-.3.6c0 0 0 .151-.151.151-.15.3-.15.45-.3.75-1.051 2.103-2.403 3.905-4.054 5.406 0 0-.15 0-.15.15l-.451.45c-.15.15-.15.15-.3.15-.15.151-.3.301-.45.301-.15.15-.301.3-.451.3-.15 0-.15.15-.3.15-7.508-1.35-12.913-7.807-12.913-15.315zm25.976 25.826l-3.754-3.754 3.603-3.603c1.802 2.102 1.802 5.105.15 7.357zM41.09 61.411c-.75.751-1.952 1.352-3.153 1.352s-2.252-.45-3.153-1.352l-8.86-8.858c-1.65-1.652-1.65-4.505 0-6.157.752-.75 1.953-1.351 3.154-1.351 1.201 0 2.252.45 3.153 1.351l6.907 6.907 10.51-10.51 4.956 4.955L41.09 61.41zm4.955 33.484h3.904v2.252h-3.904v-2.252zm-.3-1.802c-.3-2.552-1.502-4.805-3.454-6.306h.901c3.604 0 6.607 2.853 6.907 6.456h-4.354v-.15zm-1.802 0H29.979c.3-2.853 2.252-5.105 4.805-6.006.3-.15.6-.15 1.05-.3.301 0 .601-.15 1.052-.15h1.05c.752.15 1.502.3 2.253.75 1.952 1.202 3.454 3.304 3.754 5.706zm-27.177 1.802h27.027v2.252H16.766v-2.252zm0-28.829V44.144c.15-2.853 1.201-5.555 3.003-7.658 3.153 2.103 7.057 3.304 11.11 3.304 3.004 0 5.857-.6 8.26-1.802 1.35 2.102 1.951 4.504 1.951 6.907v3.603l-2.252 2.253-5.556-5.556c-1.2-1.201-2.702-1.802-4.354-1.802-1.652 0-3.153.601-4.354 1.802-1.202 1.201-1.802 2.703-1.802 4.355 0 1.651.6 3.153 1.802 4.354l8.858 8.859c1.202 1.201 2.703 1.802 4.355 1.802 1.201 0 2.402-.3 3.303-1.051v21.621c-.45.15-.9.15-1.201.45-1.051-.45-2.102-.6-3.153-.6h-.15V70.12h-1.952v15.165c-3.604.901-6.307 4.054-6.607 7.958H16.766V66.066zm.15-28.378v-3.604c.45.45 1.051.901 1.501 1.351-.6.601-1.05 1.352-1.501 2.253zM12.562 19.82c0-9.91 8.258-17.868 18.468-17.868 4.955 0 9.46 1.952 12.763 5.105-9.16 0-13.213 2.853-14.415 4.204l-.15.15c-.15.15-.3.3-.3.45-.901 1.202-2.102 3.454-2.102 7.659 0 7.807 4.955 14.414 12.162 16.666-2.402 1.051-5.105 1.652-7.808 1.652-10.36 0-18.618-8.108-18.618-18.018zm-9.61 6.306c0-.45.45-.9.9-.9h7.659c.75 2.552 1.951 4.804 3.453 6.756v33.934c0 .45-.45.9-.9.9H3.852c-.45 0-.901-.45-.901-.9v-39.79zm55.105-1.351v8.859c0 .45.3.9.75.9 9.31.3 16.217 1.952 21.773 5.106.15 0 .3.15.45.15.15 0 .3 0 .45-.15.3-.15.45-.45.45-.751v-19.37c0-.3-.15-.6-.45-.75-.15-.15-.3-.15-.45-.15-.15 0-.3 0-.45.15-5.706 3.153-12.613 4.805-21.772 5.105-.3 0-.75.45-.75.9zm-1.652 8.859v-8.86c0-.45-.45-.9-.9-.9-2.853 0-5.256 2.402-5.256 5.255 0 2.853 2.403 5.255 5.256 5.255.6.15.9-.3.9-.75zm33.334 4.654c3.153-1.952 5.105-5.405 5.105-9.009 0-3.603-1.952-7.207-5.105-9.009-.45-.3-.6-.9-.3-1.351.3-.45.9-.6 1.35-.3 3.755 2.252 6.157 6.306 6.157 10.66 0 4.355-2.402 8.409-6.156 10.66-.15.151-.3.151-.45.151-.301 0-.601-.15-.751-.45-.45-.601-.3-1.051.15-1.352zm-4.655-14.564c-.45-.3-.6-.901-.3-1.352.3-.45.9-.6 1.351-.3 2.553 1.502 4.054 4.204 4.054 7.057 0 2.853-1.501 5.556-4.054 7.057-.15.15-.3.15-.45.15-.3 0-.6-.15-.751-.45-.3-.45-.15-1.051.3-1.351 1.952-1.202 3.153-3.154 3.153-5.406-.15-2.102-1.351-4.204-3.303-5.405z"/>
</svg>
