<svg xmlns="http://www.w3.org/2000/svg" width="50" height="51" viewBox="0 0 50 51">
    <path fill="#101010" d="M8.055 15.49c3.374 1.171 7.298-1.927 7.298-1.927l.757 4.75.758 4.682s-3.925 3.098-7.298 1.928c-4.682-1.652-6.54-1.17-7.642-.206L.344 15.284c1.102-.964 2.96-1.446 7.711.207zM36.49 18.59c-4.682 0-8.469-3.855-8.469-8.606 0-1.997.551-3.167 1.033-3.718 1.377-2.134 5.92-2.272 7.298-2.272h.206c4.613 0 6.61 1.446 7.23 2.066l.068.068c.138.138.138.207.138.207.482.62 1.033 1.721 1.033 3.718-.07 4.682-3.856 8.537-8.537 8.537zm6.953-11.98l-.137-.137-.07-.07c-.481-.412-2.34-1.858-6.884-1.858h-.207c-.895 0-5.576.069-6.816 1.997-.344.413-.895 1.445-.895 3.373 0 4.406 3.58 8.055 7.918 8.055 4.406 0 7.917-3.58 7.917-8.055.138-1.928-.413-2.891-.826-3.305zm-3.442 26.3h-7.573v-9.156H40v9.156zm-.551-8.606h-6.472v8.056h6.472v-8.056zm-1.377 1.24h-3.58v.55h3.58v-.55zm0 1.446h-3.58v.55h3.58v-.55zm0 1.376h-3.58v.551h3.58v-.55zm-2.616 2.41c0 .413.344.757.757.757.413 0 .758-.344.758-.757 0-.413-.345-.757-.758-.757-.413 0-.757.344-.757.757zm-20.242-18.52c.345-.069.62.138.689.482l2.065 12.737h.07l4.268-.826 2.272-4.544V11.36c0-.757.62-1.377 1.377-1.377h.275c.207-5.37 4.75-9.708 10.259-9.708 5.645 0 10.19 4.476 10.19 9.915v-.276h.343c.758 0 1.377.62 1.377 1.377v8.882c.551 1.17.826 2.478.826 3.855v12.53h-1.032c-.207 1.928-1.721 3.374-3.58 3.58v9.708H27.746v-2.754V28.985l-2.066 1.928h-6.884l2.822 17.418h.07c.206-.137.481-.206.688-.275.413-.206.895-.344 1.239-.482.757-.275 1.24-.344 1.24-.344s-.414.275-1.102.688c-.345.207-.758.413-1.17.62-.207.138-.414.207-.69.344 0 0-.068 0-.137.07.069 0 .069 0 .138.068.206.138.413.206.688.344.413.207.826.413 1.17.62.69.413 1.102.688 1.102.688s-.482-.137-1.24-.344c-.343-.138-.756-.275-1.238-.482-.207-.069-.482-.206-.689-.275-.138-.07-.344-.138-.482-.207h-.069-.068c-.207.069-.345.138-.551.207-.207.137-.482.206-.689.275-.413.207-.895.344-1.239.482-.757.275-1.24.344-1.24.344s.414-.275 1.102-.688c.345-.207.758-.413 1.17-.62.207-.138.414-.206.69-.344 0 0 .068 0 .137-.069-.069 0-.069 0-.138-.069-.206-.137-.413-.206-.688-.344-.413-.207-.826-.413-1.17-.62-.69-.413-1.102-.688-1.102-.688s.482.138 1.239.344c.344.138.757.276 1.24.482.206.069.412.138.619.275l-2.754-17.143h-.275c-.62 0-1.17-.413-1.309-1.032l-.688-2.892c-.069-.344 0-.689.207-1.033.206-.275.481-.55.826-.62 0 0 .275-.068.413-.068l-1.997-12.6c-.137-.344.07-.62.344-.688zm10.328-.895v7.229c.688-.964 1.583-1.859 2.616-2.616-1.033-1.446-1.721-3.167-1.859-5.026h-.344c-.207-.069-.413.138-.413.413zm.757-.757v-.413.413zm10.19-9.364c-5.095 0-9.226 4.062-9.226 9.02 0 4.956 4.13 9.019 9.226 9.019 5.094 0 9.225-4.063 9.225-9.02S41.585 1.24 36.49 1.24zM47.436 11.36c0-.275-.206-.482-.482-.482h-.344c-.137 1.859-.757 3.58-1.859 5.026 1.033.757 1.928 1.652 2.617 2.616v-7.16h.068zM43.72 46.954c-.207-1.79-1.722-3.235-3.512-3.235s-3.304 1.377-3.51 3.235h7.022zm-7.987 0c-.206-1.79-1.721-3.235-3.511-3.235s-3.305 1.377-3.511 3.235h7.022zm11.636-10.258h-2.685v2.685c1.376-.206 2.41-1.308 2.685-2.685zm-3.65 12.324v-1.102h-7.022v1.102h7.023zm-7.986 0v-1.102H28.71v1.102h7.022zm-7.917-21.412h.895v17.006c.826-1.102 2.065-1.79 3.511-1.79 1.446 0 2.754.757 3.58 1.859v-6.748h.826v6.748c.826-1.102 2.135-1.86 3.58-1.86 1.446 0 2.685.69 3.512 1.79V27.609h.895v8.124h3.649V24.097c0-2.96-1.584-5.646-4.062-7.436-1.86 2.135-4.613 3.512-7.78 3.512-3.098 0-5.852-1.377-7.711-3.512-1.308.964-2.41 2.203-3.098 3.58 0 0 0 .07-.07.07l-2.822 5.232-3.374.62c.413.344.758.894.895 1.445.207.895 0 1.79-.55 2.41l5.645-.069 2.479-2.34zm-11.567-.895c-.069.138-.069.276-.069.344l.689 2.892c.069.207.275.413.482.413h.137c.276-.069.689-.138.758-.206.895-.345 1.377-1.309 1.17-2.272-.206-.895-1.033-1.515-1.928-1.515-.137 0-.275 0-.413.069-.068 0-.482.137-.482.137-.137-.068-.275 0-.344.138z"/>
</svg>
