<svg xmlns="http://www.w3.org/2000/svg" width="33" height="51" viewBox="0 0 33 51">
    <path fill="#101010" d="M25.943 27.144c-.138-.14-.276-.21-.415-.28-.138-.07-.346-.14-.622-.21v-1.259c.276.07.415.28.484.49.07.21.207.35.415.35.138 0 .208-.07.277-.14.069-.07.138-.14.138-.28 0-.07 0-.21-.07-.28-.068-.14-.137-.21-.207-.35-.138-.14-.276-.21-.415-.28-.138-.07-.346-.14-.553-.14v-.49c0-.14-.07-.28-.208-.28-.138 0-.207.07-.207.28v.42c-.415.07-.761.14-.969.42-.207.21-.346.49-.346.84 0 .28.07.49.139.63l.415.42c.207.07.415.209.692.279v1.4c-.139-.07-.277-.07-.346-.14l-.208-.21c-.07-.07-.07-.21-.138-.35 0-.07-.07-.14-.139-.21-.069-.07-.138-.07-.207-.07-.139 0-.208.07-.277.14-.07.07-.138.14-.138.28s0 .28.069.42c.07.14.138.279.277.419.138.14.276.21.415.35.207.07.415.14.622.14v.56c0 .07 0 .14.07.21 0 .07.069.07.138.07.07 0 .138 0 .138-.07s.07-.14.07-.28v-.49c.276 0 .553-.07.76-.21.208-.14.346-.28.485-.49.138-.21.138-.42.138-.63 0-.21 0-.35-.07-.49 0-.21-.068-.349-.207-.489zm-1.383-.49c-.208-.07-.346-.14-.415-.21-.07-.07-.139-.21-.139-.35 0-.14.07-.28.139-.35.069-.07.207-.14.415-.209v1.12zm.83 1.96c-.138.14-.277.209-.484.279v-1.33c.207.07.346.14.484.28.138.07.138.21.138.42.07.07 0 .21-.138.35zM8.094 33.16c-.207.42-.346.7-.346.77-.138.21-.345.35-.553.35-.07 0-.208 0-.277-.07-.276-.14-.415-.49-.276-.84 0 0 .138-.35.415-.77.138-.279.553-.419.83-.21.277.07.415.49.207.77zm1.73-3.567c.277.21.277.63.07.84-.14.209-.278.419-.485.629-.139.14-.277.28-.484.28-.139 0-.277-.07-.346-.14-.277-.21-.346-.56-.139-.84.208-.21.346-.49.554-.7.207-.21.553-.28.83-.07zm3.251-.63c.208.28.139.63-.138.84-.138.07-.207.14-.346.14-.207 0-.346-.07-.484-.28l-.07-.07c-.207-.28-.414-.35-.553-.35h-.138c-.346.07-.623-.14-.692-.49-.07-.35.138-.63.484-.7h.346c.415 0 .969.14 1.522.84l.07.07zm2.007 3.428c.207.28.069.63-.208.84-.069.07-.207.07-.346.07-.207 0-.415-.07-.484-.28-.277-.42-.553-.91-.83-1.4-.139-.28-.07-.7.207-.84.277-.139.692-.07.83.21.346.56.554.98.83 1.4zm5.95.63c-.346.49-.762.909-1.107 1.259-.139.14-.277.14-.416.14-.138 0-.345-.07-.415-.21-.207-.21-.207-.63 0-.84.277-.28.623-.7.969-1.119.207-.28.553-.35.83-.14.277.28.346.63.138.91zm-2.906 1.888c0 .35-.208.63-.554.63h-.207c-.554 0-1.107-.21-1.66-.56-.277-.21-.347-.56-.139-.84.208-.279.553-.349.83-.139.346.28.692.35 1.038.35.346 0 .692.28.692.56zm4.635-4.617c-.138.21-.277.49-.415.7-.138.21-.346.28-.484.28-.139 0-.208 0-.277-.07-.277-.14-.346-.56-.208-.84.139-.21.277-.49.415-.7.139-.28.554-.42.83-.21.208.14.277.56.139.84zM16.189 18.61c4.773 0 8.578-3.918 8.578-8.745 0-2.029-.553-3.218-1.037-3.778-1.384-2.168-5.95-2.308-7.334-2.308h-.207c-4.636 0-6.642 1.469-7.264 2.099l-.07.07c-.138.14-.138.21-.138.21-.484.629-1.038 1.748-1.038 3.847 0 4.687 3.805 8.605 8.51 8.605zM9.2 6.436l.139-.14.069-.07c.484-.42 2.352-1.889 6.849-1.889h.207c.9 0 5.604.07 6.85 2.03.345.419.899 1.468.899 3.427 0 4.478-3.528 8.115-7.956 8.115-4.428.07-7.956-3.567-7.956-8.045 0-1.959.553-3.008.9-3.428zM31.41 26.934s-.484-.07-.554-.07h-.484v-6.016c0-.14-.138-.35-.277-.35l-1.937-.42v-8.815c0-.77-.622-1.399-1.383-1.399h-.277C26.289 4.407 21.792 0 16.189 0c-5.535 0-10.1 4.407-10.24 9.864h-.276c-.761 0-1.384.63-1.384 1.4v8.954c-.207.56-.415 1.05-.553 1.68l-1.176.489c-.139.07-.208.21-.208.35v4.127c-.138 0-.484.07-.484.07-.83.07-1.453.84-1.315 1.68L.97 32.11c.069.77.691 1.33 1.452 1.33v8.604c0 .14.07.21.139.28.069.07.138.07.207.07h.139l5.188-2.029v10.145H25.044v-2.8-8.324l4.981 1.19h.07c.069 0 .138 0 .207-.07.07-.07.138-.14.138-.28V33.44c.07 0 .208 0 .346.07h.139c.76 0 1.383-.56 1.522-1.329l.415-3.498c0-.91-.623-1.679-1.453-1.749zm-4.22-15.67v7.345c-.692-.98-1.592-1.889-2.63-2.658 1.038-1.47 1.73-3.218 1.869-5.107h.346c.207 0 .415.21.415.42zm-11-10.285c5.12 0 9.27 4.128 9.27 9.165 0 5.037-4.15 9.165-9.27 9.165-5.12-.07-9.27-4.128-9.27-9.165 0-5.037 4.15-9.165 9.27-9.165zM5.258 11.263c0-.28.207-.49.484-.49h.346c.138 1.89.761 3.639 1.799 5.108-1.038.77-1.937 1.679-2.63 2.658v-7.276zM8.44 16.65c1.868 2.169 4.705 3.568 7.818 3.568 3.113 0 5.88-1.4 7.748-3.568 1.176.84 2.145 1.89 2.768 3.008l-2.768-.63H23.8l-7.264 3.429-6.711-2.869h-.277l-4.704 1.89c.553-1.89 1.868-3.569 3.597-4.828zM1.73 31.971l-.416-3.498c-.069-.35.208-.7.623-.77 0 0 .484-.07.554-.07h.276c1.246 0 2.214.91 2.352 2.17.139 1.189-.622 2.308-1.73 2.588-.137 0-.553.07-.898.14-.416.07-.761-.21-.761-.56zm14.251 17.56H8.925v-1.12h7.056v1.12zm-7.056-2.099c.207-1.819 1.73-3.288 3.528-3.288 1.799 0 3.32 1.4 3.528 3.288H8.925zm3.528-4.197c-1.453 0-2.698.7-3.528 1.818v-5.106l.691-.28 6.434 2.728v2.728c-.76-1.119-2.075-1.888-3.597-1.888zm4.428 1.958v-2.728l7.125-3.288v5.876c-.83-1.119-2.075-1.818-3.528-1.818-1.522 0-2.836.77-3.597 1.958zm7.125 2.24H16.95c.207-1.82 1.73-3.289 3.528-3.289 1.799.07 3.32 1.47 3.528 3.288zm0 2.098H16.95v-1.12h7.056v1.12zm5.604-9.864l-5.535-1.33H23.868l-7.264 3.358-6.71-2.868h-.278l-6.503 2.519V33.37c.346-.07.484-.07.554-.07 1.522-.42 2.49-1.888 2.352-3.498-.208-1.539-1.384-2.728-2.906-2.868v-3.918l1.453-.56h.07l5.119-2.028 6.78 2.868h.276l7.334-3.358 5.603 1.33v5.876c-1.245.35-2.213 1.4-2.352 2.798-.207 1.61.83 3.079 2.352 3.498v6.227h-.138zm2.283-11.124l-.415 3.498c-.07.35-.346.56-.623.56h-.069c-.346-.07-.76-.14-.9-.14-1.106-.35-1.867-1.4-1.729-2.589.139-1.329 1.315-2.308 2.63-2.098.068 0 .553.07.553.07.346 0 .622.35.553.7z"/>
</svg>
