<svg xmlns="http://www.w3.org/2000/svg" width="63" height="51" viewBox="0 0 63 51">
    <path fill="#101010" d="M56.978 15.036h3.613v.604h-3.613v-.604zm0 2.115h3.613v-.604h-3.613v.604zm0 1.436h3.613v-.605h-3.613v.605zm5.796-4.76V34c0 .756-.602 1.436-1.43 1.436h-5.193c-.151 0-.302 0-.452-.076v15.489H37.032v-2.796c.076-2.493 2.108-4.457 4.516-4.457h.076V30.978l-5.119 2.115-.3-.755c-.302.075-.528.075-.829.075-1.73 0-3.236-.982-3.838-2.569l-.15-.453 3.16-1.284-.376-.831 7.452-3.098v-.907c0-1.435.376-2.795 1.129-3.929-.15-.075-.226-.15-.377-.226l-.15-.076-.075-.076c-.076-.075-.151-.075-.226-.15-.301-.227-.678-.454-.903-.756l-.076-.076c-1.054-.982-1.957-2.115-2.484-3.475v-.076c-.075-.151-.075-.227-.15-.378 0-.075-.075-.075-.075-.15-.076-.076-.076-.227-.151-.379 0-.075-.075-.15-.075-.226-.076-.151-.076-.302-.15-.454 0-.15-.076-.226-.076-.377 0-.076 0-.151-.075-.227 0-.151-.076-.227-.076-.378v-.226c0-.152 0-.227-.075-.378v-.151-.605-.453-.227-.226-.227-.151c0-.076 0-.227.075-.302V8.84c.15-.68.301-1.36.603-1.964V6.8c.075-.076.075-.227.15-.302 0-.076.075-.076.075-.151.076-.076.076-.151.15-.227 0-.076.076-.151.076-.227 0-.075.075-.15.075-.15.076-.076.151-.227.226-.303v-.076c.226-.377.527-.755.828-1.133l.15-.151C41.85 1.889 44.635.529 47.797.529c5.645 0 10.236 4.533 10.236 10.049 0 .604-.075 1.209-.15 1.738h3.688c.602.075 1.204.68 1.204 1.51zM48.85 10.35c0-1.889-.526-2.871-.903-3.324 0 0-.075-.076-.075-.151l-.075-.076c-.452-.453-2.258-1.813-6.774-1.813h-.753c-.15.15-.226.302-.377.453v.076c-.075.075-.15.226-.225.302 0 0 0 .075-.076.075-.075.076-.075.151-.15.227 0 .076-.075.076-.075.151 0 .076-.076.076-.076.151-.075.151-.15.378-.225.53-.076.075-.076.226-.151.301-.075.076-.075.227-.15.303-.151.453-.302.906-.377 1.435v.076c0 .075 0 .15-.075.302v2.493c0 .076 0 .227.075.302v.227c0 .076.075.227.075.302 0 .076 0 .151.076.227 0 .151.075.227.075.378.075.15.075.226.15.378 0 .075 0 .075.076.15.075.076.075.227.15.303 0 0 0 .075.076.075.075.152.075.227.15.378.527 1.058 1.204 1.965 2.108 2.72 0 0 .075 0 .075.076l.226.226.15.152c.075.075.15.15.226.15.075.076.15.152.226.152.075 0 .075.075.15.075 3.689-.68 6.473-4.004 6.473-7.782zM42.376 23.8l4.14-1.662c.376-.151.753-.227 1.204-.227 1.28 0 2.409.756 2.936 1.965.301.755.301 1.662 0 2.417-.301.756-.903 1.36-1.731 1.663L42.452 30.6v13.071c.225.076.451.076.602.227.527-.227 1.054-.302 1.58-.302h.076V36.04h1.053v7.707c1.807.453 3.162 2.04 3.312 4.004h5.72V34.076 23.044c-.075-1.51-.601-2.87-1.505-4.08-1.58 1.058-3.537 1.663-5.57 1.663-1.505 0-2.935-.303-4.215-.907-.677 1.058-1.053 2.267-1.053 3.551v.529h-.076zm12.344-4.156v-1.813c-.225.227-.526.453-.752.68.3.378.527.756.752 1.133zM45.688 44.73c-.15-.076-.3-.076-.527-.151-.15 0-.3-.076-.527-.076h-.526c-.377.076-.753.151-1.13.378-1.053.529-1.806 1.587-1.956 2.871H48.097c-.15-1.435-1.13-2.569-2.409-3.022zM35.678 31.43l-.98-2.418-2.257.907c.602.982 1.58 1.587 2.785 1.587.15 0 .3-.076.451-.076zm12.87-4.307c.527-.226.979-.68 1.205-1.208.225-.53.225-1.134 0-1.663-.377-.83-1.13-1.36-2.033-1.36-.3 0-.602.076-.828.151L35.376 27.73l1.656 4.08 11.516-4.685zm-8.58 21.61H38.01v1.133h1.957v-1.134zm.15-.983c.15-1.284.753-2.418 1.731-3.249h-.451c-1.807 0-3.312 1.436-3.538 3.25h2.258zm14.678.982H41.097v1.134h13.698v-1.134zm2.107-38.08c0-4.986-4.14-9.066-9.333-9.066-2.484 0-4.817.982-6.473 2.569 4.666 0 6.623 1.51 7.3 2.115l.076.076c.075.075.15.15.15.226.528.605 1.13 1.814 1.13 3.854 0 4.004-2.484 7.329-6.172 8.462 1.204.529 2.559.907 3.989.907 5.193-.076 9.333-4.156 9.333-9.143zm4.893 3.174c0-.227-.226-.454-.452-.454H57.43c-.376 1.285-.978 2.418-1.806 3.4V34c0 .227.225.453.451.453h5.194c.226 0 .451-.226.451-.453V13.827h.076zM6.247 15.716H2.634v-.605h3.613v.605zm0 .83H2.634v.605h3.613v-.604zm0 1.436H2.634v.605h3.613v-.605zm-4.365-5.59H5.57c-.075-.605-.15-1.134-.15-1.739C5.42 5.138 10.01.604 15.655.604c3.161 0 5.946 1.36 7.828 3.552l.15.15c.301.378.527.756.828 1.134v.076c.076.075.15.226.226.302 0 .075.075.15.075.15 0 .076.076.152.076.228.075.075.075.15.15.226 0 .076.076.076.076.151.075.076.075.227.15.303v.075c.226.605.452 1.285.602 1.965v.075c0 .076 0 .227.075.302V11.333c0 .151 0 .227-.075.378v.227c0 .15 0 .226-.075.378 0 .075 0 .15-.075.226 0 .151-.076.227-.076.378s-.075.302-.15.453c0 .076-.075.151-.075.227 0 .151-.076.227-.15.378 0 .075-.076.075-.076.15-.075.152-.075.228-.15.379v.075c-.603 1.285-1.43 2.494-2.485 3.476l-.075.075c-.301.227-.602.53-.903.756-.075.075-.15.151-.226.151l-.075.076-.15.075c-.151.076-.227.151-.377.227.677 1.209 1.129 2.493 1.129 3.929v.83l7.452 3.099-.377.83 3.162 1.285-.151.453c-.602 1.587-2.108 2.57-3.839 2.57-.3 0-.527 0-.828-.076l-.3.755-5.194-2.115v12.618h.075c2.409 0 4.366 1.964 4.516 4.457v2.796H7.527V35.284c-.15.076-.301.076-.452.076H1.882c-.753 0-1.43-.604-1.43-1.436V13.827c0-.831.602-1.436 1.43-1.436zm18.892 5.741c.075 0 .075-.075.15-.075.076-.076.151-.151.227-.151.075-.076.15-.151.225-.151.076 0 .076-.076.15-.152l.227-.226s.075 0 .075-.076c.828-.755 1.58-1.738 2.107-2.72.076-.15.076-.226.151-.378 0 0 0-.075.075-.075.076-.076.076-.227.15-.302 0-.076 0-.076.076-.151.075-.152.075-.227.15-.378.076-.151.076-.227.076-.378 0-.076 0-.151.075-.227 0-.075.075-.226.075-.302v-.227c0-.075 0-.226.076-.302v-.226-.378-.151-.53-.453-.15-.227-.227-.151c0-.076 0-.151-.076-.302V8.99c-.075-.453-.225-.982-.376-1.435-.075-.152-.075-.227-.15-.303-.076-.075-.076-.226-.151-.302-.075-.151-.15-.378-.226-.529 0-.075-.075-.075-.075-.15 0-.076-.075-.076-.075-.152-.076-.076-.076-.151-.15-.227 0 0 0-.075-.076-.075-.075-.076-.15-.227-.226-.302V5.44c-.075-.151-.226-.302-.376-.453h-.753c-4.516 0-6.323 1.435-6.774 1.813l-.075.076c-.076.075-.076.075-.076.15-.3.378-.903 1.36-.903 3.325.075 3.778 2.86 7.102 6.473 7.782zm.075 5.214c0-1.285-.376-2.494-1.053-3.551-1.28.604-2.71.906-4.215.906-2.033 0-3.99-.604-5.57-1.662-.903 1.133-1.506 2.569-1.506 4.08v24.631h5.72c.151-1.964 1.581-3.551 3.313-4.004V36.04h1.053v7.556h.076c.527 0 1.129.075 1.58.302.226-.076.377-.151.602-.227V30.6l-6.473-2.644c-.752-.303-1.354-.907-1.73-1.663-.302-.755-.302-1.662 0-2.417.45-1.21 1.655-1.965 2.935-1.965.376 0 .828.076 1.204.227l4.14 1.662v-.453h-.076zM9.26 18.51c-.302-.227-.528-.453-.754-.68v1.813c.226-.377.452-.755.753-1.133zm5.87 29.24H22.204c-.15-1.284-.903-2.342-1.957-2.871-.376-.151-.752-.302-1.129-.378h-.451-.076c-.15 0-.376 0-.526.076-.151 0-.377.075-.527.15-1.28.454-2.258 1.588-2.409 3.023zM28 31.507c1.129 0 2.183-.605 2.785-1.587l-2.258-.907-.979 2.418c.15 0 .301.076.452.076zm-1.806.302l1.655-4.08-11.516-4.685c-.3-.075-.527-.15-.828-.15-.903 0-1.73.528-2.032 1.36-.226.528-.226 1.133 0 1.662.226.528.678.982 1.204 1.208l11.517 4.685zm-2.936 18.058h1.957v-1.21h-1.957v1.21zm2.108-2.116c-.226-1.813-1.732-3.249-3.538-3.249h-.452c.979.756 1.581 1.89 1.732 3.25h2.258zM8.43 49.867H22.13v-1.21H8.431v1.21zm7.15-30.147c1.43 0 2.786-.302 3.99-.907-3.613-1.133-6.172-4.533-6.172-8.462 0-2.115.602-3.249 1.129-3.853 0 0 .075-.076.15-.227l.076-.075c.677-.605 2.71-2.116 7.3-2.116-1.655-1.587-3.988-2.569-6.472-2.569-5.119 0-9.334 4.08-9.334 9.067 0 4.986 4.215 9.142 9.334 9.142zM1.43 34c0 .227.226.453.452.453h5.193c.226 0 .452-.226.452-.453V16.773c-.828-.982-1.43-2.19-1.807-3.4H1.882c-.226 0-.452.227-.452.454V34z"/>
</svg>
