<?xml version="1.0" encoding="UTF-8"?>
<svg width="127px" height="46px" viewBox="0 0 127 46" version="1.1" xmlns="http://www.w3.org/2000/svg" xmlns:xlink="http://www.w3.org/1999/xlink">
    <!-- Generator: sketchtool 51.1 (57501) - http://www.bohemiancoding.com/sketch -->
    <title>6DC225FB-4ED1-4B2E-BB63-6508DA1D7207@2x</title>
    <desc>Created with sketchtool.</desc>
    <defs>
        <linearGradient x1="102.732813%" y1="50%" x2="0%" y2="50%" id="linearGradient-1">
            <stop stop-color="#A5CF4C" offset="0%"></stop>
            <stop stop-color="#A5CF4C" offset="37.2733503%"></stop>
            <stop stop-color="#F36F22" offset="38.4707276%"></stop>
            <stop stop-color="#F36F22" offset="62.60413%"></stop>
            <stop stop-color="#78B6E4" offset="62.9790794%"></stop>
            <stop stop-color="#78B6E4" offset="100%"></stop>
        </linearGradient>
    </defs>
    <g id="Page-1" stroke="none" stroke-width="1" fill="none" fill-rule="evenodd">
        <g id="E.S-Clean" transform="translate(-254.000000, -9.000000)">
            <g id="Logo" transform="translate(254.000000, 9.000000)">
                <g id="Loop-position-Copy-2" transform="translate(0.000000, 2.000000)" fill="url(#linearGradient-1)">
                    <path d="M28.9642134,11.0518764 C30.8800456,7.49335969 32.9786066,4.82451221 35.2599595,3.04525386 C37.5413123,1.26599552 40.0053885,0.376379691 42.652262,0.376379691 C46.3830932,0.376379691 49.5403877,1.78493808 52.1242404,4.60209713 C54.708093,7.41925618 56,10.8465582 56,14.884106 C56,19.2638188 54.6009593,23.0446861 51.8028359,26.2268212 C49.0047125,29.4089563 45.6772644,31 41.8203916,31 C39.5012263,31 37.106472,30.0818708 34.6360567,28.245585 C32.1656415,26.4092991 29.6322435,23.6435063 27.0357866,19.9481236 C25.0947461,23.5066403 22.9835811,26.1754878 20.7022282,27.9547461 C18.4208754,29.7340045 15.9694032,30.6236203 13.347738,30.6236203 C9.64211517,30.6236203 6.49112259,29.2150619 3.89466577,26.3979029 C1.29820894,23.5807438 0,20.1534418 0,16.115894 C0,11.7361812 1.3990407,7.95531392 4.19716408,4.77317881 C6.99528745,1.59104369 10.3227356,0 14.1796084,0 C16.4735654,0 18.8557158,0.923831821 21.326131,2.77152318 C23.7965462,4.61921454 26.3425482,7.37930467 28.9642134,11.0518764 Z M24.6158001,16.9713024 L23.7461175,15.8763797 C20.8219525,12.295052 18.6540696,9.91704046 17.2424038,8.74227373 C15.8307379,7.567507 14.4316972,6.98013245 13.0452397,6.98013245 C11.0285742,6.98013245 9.30813226,7.92677493 7.88386226,9.8200883 C6.45959225,11.7134017 5.74746793,14.0172786 5.74746793,16.7317881 C5.74746793,19.3094316 6.52891409,21.4593365 8.09182984,23.1815673 C9.6547456,24.9037982 11.608361,25.7649007 13.9527346,25.7649007 C15.7173169,25.7649007 17.4881748,25.0349595 19.2653612,23.5750552 C21.0425477,22.1151509 22.8260095,19.913922 24.6158001,16.9713024 Z M31.3841999,14.0286976 L32.2916948,15.1236203 C34.6864851,18.0890509 36.7724422,20.3130905 38.5496286,21.7958057 C40.3268151,23.278521 41.7951776,24.0198675 42.9547603,24.0198675 C44.9966341,24.0198675 46.723378,23.0732251 48.1350439,21.1799117 C49.5467097,19.2865983 50.2525321,16.9827214 50.2525321,14.2682119 C50.2525321,11.6905684 49.4710859,9.5406635 47.9081702,7.81843267 C46.3452544,6.09620184 44.391639,5.23509934 42.0472654,5.23509934 C40.2574747,5.23509934 38.4740129,5.9707432 36.6968265,7.44205298 C34.91964,8.91336276 33.1487822,11.108889 31.3841999,14.0286976 Z" id="∞"></path>
                </g>
                <text id="OPEN-PRACTICE-LIBRAR-Copy" font-family="LucidaGrande, Lucida Grande" font-size="14" font-weight="normal" line-spacing="14" fill="#757575">
                    <tspan x="61" y="14">OPEN</tspan>
                    <tspan x="61" y="28">PRACTICE</tspan>
                    <tspan x="61" y="42">LIBRARY</tspan>
                </text>
                <rect id="Rectangle-10" fill="#A54CCF" fill-rule="nonzero" x="0" y="35" width="56" height="5" rx="2.5"></rect>
            </g>
        </g>
    </g>
</svg>
