<svg xmlns="http://www.w3.org/2000/svg" xmlns:xlink="http://www.w3.org/1999/xlink" width="542" height="207" version="1.1" viewBox="0 0 542 207"><title>Untitled</title><defs><linearGradient id="linearGradient-1" x1=".494%" x2="99.71%" y1="50%" y2="50%"><stop offset="0%" stop-color="#242582"/><stop offset=".714%" stop-color="#242582"/><stop offset="28.96%" stop-color="#5E3DC4"/><stop offset="54.94%" stop-color="#A14599"/><stop offset="78.51%" stop-color="#E30F8D"/><stop offset="99.64%" stop-color="#F64C72"/><stop offset="100%" stop-color="#F64C72"/></linearGradient></defs><g id="Page-1" fill="none" fill-rule="evenodd" stroke="none" stroke-width="1"><g id="logo" fill-rule="nonzero"><path id="Shape" fill="url(#linearGradient-1)" d="M94.93,191.62 C91.56,194.99 91.56,200.46 94.93,203.83 C98.3,207.2 103.77,207.2 107.14,203.83 C110.51,200.46 110.51,194.99 107.14,191.62 C105.46,189.93 103.25,189.09 101.04,189.09 C98.83,189.09 96.62,189.93 94.93,191.62 M126.47,189.37 C123.28,192.56 123.28,197.73 126.47,200.92 C129.66,204.11 134.83,204.11 138.02,200.92 C141.21,197.73 141.21,192.56 138.02,189.37 C136.43,187.77 134.34,186.98 132.24,186.98 C130.14,186.98 128.06,187.77 126.47,189.37 M63.91,184.19 C60.36,187.74 60.36,193.5 63.91,197.06 C67.46,200.61 73.22,200.61 76.78,197.06 C80.33,193.51 80.33,187.74 76.78,184.19 C75,182.41 72.68,181.529917 70.35,181.529917 C68.01,181.52 65.68,182.41 63.91,184.19 M155.74,178.12 C152.73,181.13 152.73,186.01 155.74,189.02 C158.75,192.03 163.63,192.03 166.64,189.02 C169.65,186.01 169.65,181.13 166.64,178.12 C165.13,176.62 163.16,175.86 161.19,175.86 C159.22,175.86 157.24,176.61 155.74,178.12 M36.17,166.42 C32.44,170.15 32.44,176.21 36.17,179.94 C39.9,183.67 45.96,183.67 49.69,179.94 C53.42,176.21 53.42,170.15 49.69,166.42 C47.82,164.55 45.38,163.619921 42.93,163.619921 C40.48,163.61 38.04,164.55 36.17,166.42 M179.96,158.52 C177.13,161.35 177.13,165.93 179.96,168.76 C182.79,171.59 187.37,171.59 190.2,168.76 C193.03,165.93 193.03,161.35 190.2,158.52 C188.79,157.11 186.93,156.4 185.08,156.4 C183.22,156.4 181.37,157.11 179.96,158.52 M111.51,143.54 C108.8,146.25 108.8,150.64 111.51,153.34 C114.22,156.05 118.61,156.05 121.31,153.34 C124.02,150.63 124.02,146.24 121.31,143.54 C119.96,142.19 118.18,141.51 116.41,141.51 C114.64,141.51 112.86,142.19 111.51,143.54 M84.57,141.28 C82.06,143.79 82.06,147.87 84.57,150.38 C87.08,152.89 91.16,152.89 93.67,150.38 C96.18,147.86 96.18,143.79 93.67,141.28 C92.41,140.02 90.77,139.39 89.12,139.39 C87.47,139.39 85.82,140.02 84.57,141.28 M15.94,140.01 C12.02,143.93 12.02,150.27 15.94,154.19 C19.85,158.11 26.2,158.11 30.12,154.19 C34.04,150.28 34.04,143.93 30.12,140.01 C28.16,138.05 25.6,137.07 23.03,137.07 C20.46,137.07 17.9,138.06 15.94,140.01 M137.35,135.35 C134.45,138.25 134.45,142.95 137.35,145.85 C140.25,148.75 144.95,148.75 147.85,145.85 C150.75,142.95 150.75,138.25 147.85,135.35 C146.4,133.9 144.5,133.17 142.6,133.17 C140.7,133.17 138.8,133.9 137.35,135.35 M196.85,130.75 C194.2,133.4 194.2,137.69 196.85,140.33 C199.5,142.98 203.79,142.98 206.44,140.33 C209.09,137.69 209.09,133.39 206.44,130.75 C205.12,129.43 203.38,128.76 201.65,128.76 C199.91,128.76 198.18,129.42 196.85,130.75 M60.92,128.3 C58.6,130.62 58.6,134.38 60.92,136.7 C63.24,139.02 67,139.02 69.32,136.7 C71.64,134.38 71.64,130.62 69.32,128.3 C68.16,127.14 66.64,126.56 65.12,126.56 C63.6,126.56 62.08,127.14 60.92,128.3 M157.84,116.78 C154.75,119.87 154.75,124.89 157.84,127.98 C160.93,131.07 165.95,131.07 169.04,127.98 C172.13,124.89 172.13,119.87 169.04,116.78 C167.49,115.23 165.46,114.46 163.44,114.46 C161.42,114.46 159.38,115.23 157.84,116.78 M5.33,109.18 C1.23,113.28 1.23,119.92 5.33,124.02 C9.43,128.12 16.07,128.12 20.17,124.02 C24.27,119.92 24.27,113.28 20.17,109.18 C18.12,107.13 15.44,106.11 12.75,106.11 C10.06,106.11 7.38,107.13 5.33,109.18 M44.55,106.18 C42.42,108.31 42.42,111.76 44.55,113.88 C46.68,116.01 50.13,116.01 52.25,113.88 C54.38,111.75 54.38,108.31 52.25,106.18 C51.19,105.12 49.79,104.59 48.4,104.59 C47,104.59 45.61,105.12 44.55,106.18 M203.87,99.54 C201.41,102.01 201.41,106 203.87,108.47 C206.33,110.93 210.33,110.93 212.8,108.47 C215.27,106 215.27,102.01 212.8,99.54 C211.57,98.31 209.95,97.69 208.34,97.69 C206.71,97.69 205.1,98.3 203.87,99.54 M167.59,90.13 C164.3,93.42 164.3,98.75 167.59,102.03 C170.88,105.32 176.21,105.32 179.49,102.03 C182.78,98.74 182.78,93.41 179.49,90.13 C177.85,88.49 175.69,87.66 173.54,87.66 C171.39,87.66 169.23,88.49 167.59,90.13 M39.25,81.53 C37.32,83.46 37.32,86.6 39.25,88.53 C41.18,90.46 44.32,90.46 46.25,88.53 C48.18,86.6 48.18,83.46 46.25,81.53 C45.28,80.56 44.02,80.08 42.75,80.08 C41.49,80.08 40.22,80.56 39.25,81.53 M3.41,78.99 C-0.87,83.27 -0.87,90.2 3.41,94.48 C7.69,98.76 14.63,98.76 18.9,94.48 C23.18,90.2 23.18,83.27 18.9,78.99 C16.76,76.85 13.96,75.78 11.15,75.78 C8.35,75.78 5.55,76.85 3.41,78.99 M201.17,68.53 C198.89,70.81 198.89,74.52 201.17,76.8 C203.45,79.08 207.16,79.08 209.44,76.8 C211.72,74.52 211.72,70.81 209.44,68.53 C208.3,67.39 206.8,66.82 205.3,66.82 C203.8,66.82 202.31,67.38 201.17,68.53 M165.18,62.21 C161.7,65.69 161.7,71.33 165.18,74.81 C168.66,78.29 174.3,78.29 177.78,74.81 C181.26,71.33 181.26,65.69 177.78,62.21 C176.04,60.47 173.76,59.6 171.48,59.6 C169.2,59.6 166.92,60.47 165.18,62.21 M46.36,56.97 C44.62,58.71 44.62,61.53 46.36,63.27 C48.1,65.01 50.92,65.01 52.66,63.27 C54.4,61.53 54.4,58.71 52.66,56.97 C51.79,56.1 50.65,55.66 49.51,55.66 C48.37,55.67 47.23,56.1 46.36,56.97 M11.61,48.84 C7.15,53.3 7.15,60.53 11.61,64.99 C16.07,69.45 23.3,69.45 27.76,64.99 C32.22,60.53 32.22,53.3 27.76,48.84 C25.53,46.61 22.61,45.5 19.68,45.5 C16.76,45.5 13.84,46.61 11.61,48.84 M188.96,41.33 C186.86,43.43 186.86,46.84 188.96,48.95 C191.06,51.05 194.47,51.05 196.58,48.95 C198.68,46.85 198.68,43.44 196.58,41.33 C195.53,40.28 194.15,39.75 192.77,39.75 C191.39,39.75 190.01,40.28 188.96,41.33 M63.01,36.92 C61.46,38.47 61.46,40.97 63.01,42.52 C64.56,44.07 67.06,44.07 68.61,42.52 C70.16,40.97 70.16,38.46 68.61,36.92 C67.84,36.15 66.82,35.76 65.81,35.76 C64.8,35.76 63.79,36.15 63.01,36.92 M153.75,37.06 C150.08,40.73 150.08,46.69 153.75,50.36 C157.42,54.03 163.38,54.03 167.05,50.36 C170.72,46.69 170.72,40.73 167.05,37.06 C165.21,35.22 162.81,34.3 160.4,34.3 C158,34.31 155.59,35.23 153.75,37.06 M29.56,23.87 C24.92,28.51 24.92,36.03 29.56,40.67 C34.2,45.31 41.72,45.31 46.37,40.67 C51.01,36.03 51.01,28.51 46.37,23.87 C44.05,21.55 41.01,20.39 37.97,20.39 C34.92,20.39 31.88,21.55 29.56,23.87 M167.62,17.93 C165.7,19.85 165.7,22.97 167.62,24.89 C169.54,26.81 172.66,26.81 174.58,24.89 C176.5,22.97 176.5,19.85 174.58,17.93 C173.62,16.97 172.36,16.49 171.1,16.49 C169.84,16.49 168.58,16.97 167.62,17.93 M134.72,18.41 C130.85,22.28 130.85,28.55 134.72,32.42 C138.59,36.29 144.86,36.29 148.73,32.42 C152.6,28.55 152.6,22.28 148.73,18.41 C146.8,16.48 144.26,15.51 141.73,15.51 C139.19,15.51 136.66,16.47 134.72,18.41 M54.53,8.48 C50.08,12.93 50.08,20.14 54.53,24.59 C58.98,29.04 66.19,29.04 70.63,24.59 C75.08,20.14 75.08,12.93 70.63,8.48 C68.41,6.26 65.49,5.14993304 62.58,5.14993304 C59.67,5.14 56.75,6.25 54.53,8.48 M110.21,6.02 C106.15,10.08 106.15,16.66 110.21,20.72 C114.27,24.78 120.85,24.78 124.91,20.72 C128.97,16.66 128.97,10.08 124.91,6.02 C122.88,3.99 120.22,2.97 117.56,2.97 C114.9,2.98 112.24,3.99 110.21,6.02 M142.42,2.39 C140.68,4.13 140.68,6.95 142.42,8.69 C144.16,10.43 146.98,10.43 148.72,8.69 C150.46,6.95 150.46,4.13 148.72,2.39 C147.85,1.52 146.71,1.08 145.57,1.08 C144.43,1.08 143.29,1.52 142.42,2.39 M90.56,0.17 C87.8,0.17 85.04,1.22 82.93,3.33 C78.71,7.55 78.71,14.38 82.93,18.6 C87.14,22.81 93.98,22.81 98.19,18.6 C102.41,14.39 102.41,7.55 98.19,3.33 C96.08,1.23 93.32,0.17 90.56,0.17 Z"/><g id="Group" fill="#231F20" transform="translate(233.000000, 27.000000)"><path id="Shape" d="M29.75,34.79 C32.24,33.4 34.19,31.47 35.6,29 C37.01,26.53 37.72,23.77 37.72,20.73 C37.72,17.69 37.01,14.93 35.6,12.46 C34.19,9.99 32.24,8.06 29.75,6.67 C27.26,5.28 24.48,4.58 21.4,4.58 C18.32,4.58 15.52,5.28 13.02,6.67 C10.51,8.06 8.54,9.99 7.12,12.46 C5.69,14.93 4.97,17.69 4.97,20.73 C4.97,23.78 5.69,26.53 7.12,29 C8.55,31.47 10.52,33.4 13.02,34.79 C15.53,36.18 18.32,36.88 21.4,36.88 C24.48,36.88 27.26,36.19 29.75,34.79 M10.89,37.97 C7.75,36.24 5.3,33.88 3.54,30.87 C1.78,27.86 0.89,24.48 0.89,20.73 C0.89,16.98 1.77,13.6 3.54,10.59 C5.3,7.58 7.75,5.21 10.89,3.49 C14.03,1.76 17.53,0.9 21.39,0.9 C25.25,0.9 28.73,1.76 31.83,3.46 C34.93,5.17 37.37,7.54 39.16,10.56 C40.94,13.59 41.83,16.98 41.83,20.73 C41.83,24.48 40.94,27.87 39.16,30.9 C37.38,33.93 34.93,36.3 31.83,38 C28.73,39.71 25.25,40.56 21.39,40.56 C17.53,40.56 14.03,39.69 10.89,37.97"/><path id="Shape" d="M73.9,21.76 C75.94,20.07 76.96,17.68 76.96,14.6 C76.96,11.44 75.94,9.02 73.9,7.33 C71.86,5.64 68.9,4.79 65.04,4.79 L54.68,4.79 L54.68,24.29 L65.04,24.29 C68.9,24.29 71.86,23.45 73.9,21.76 M76.85,4.79 C79.67,7.17 81.08,10.44 81.08,14.6 C81.08,18.76 79.67,22.02 76.85,24.38 C74.03,26.74 70.13,27.92 65.15,27.92 L54.68,27.92 L54.68,40.23 L50.56,40.23 L50.56,1.2399375 L65.16,1.2399375 C70.13,1.23 74.03,2.42 76.85,4.79"/></g><polygon id="Path" fill="#231F20" points="351.9 63.66 351.9 67.22 324.33 67.22 324.33 28.23 351.06 28.23 351.06 31.79 328.45 31.79 328.45 45.66 348.61 45.66 348.61 49.17 328.45 49.17 328.45 63.66"/><polygon id="Path" fill="#231F20" points="396.58 28.23 396.58 67.22 393.18 67.22 368.12 35.58 368.12 67.22 363.99 67.22 363.99 28.23 367.39 28.23 392.52 59.87 392.52 28.23"/><g id="Group" fill="#231F20" transform="translate(241.000000, 83.000000)"><path id="Shape" d="M23.44,21.46 C25.48,19.77 26.5,17.38 26.5,14.3 C26.5,11.14 25.48,8.72 23.44,7.03 C21.4,5.34 18.45,4.5 14.58,4.5 L4.22,4.5 L4.22,24 L14.58,24 C18.45,24 21.4,23.15 23.44,21.46 M26.4,4.5 C29.22,6.88 30.63,10.15 30.63,14.3 C30.63,18.46 29.22,21.72 26.4,24.08 C23.58,26.44 19.68,27.62 14.7,27.62 L4.23,27.62 L4.23,39.93 L0.11,39.93 L0.11,0.939937499 L14.71,0.939937499 C19.67,0.93 23.57,2.12 26.4,4.5"/><path id="Shape" d="M63.9,21.49 C65.94,19.78 66.96,17.39 66.96,14.3 C66.96,11.14 65.94,8.72 63.9,7.03 C61.86,5.34 58.9,4.5 55.04,4.5 L44.68,4.5 L44.68,24.05 L55.04,24.05 C58.9,24.05 61.86,23.2 63.9,21.49 M67.19,39.93 L58.28,27.4 C57.28,27.51 56.24,27.57 55.16,27.57 L44.69,27.57 L44.69,39.94 L40.57,39.94 L40.57,0.95 L55.17,0.95 C60.14,0.95 64.05,2.14 66.87,4.52 C69.69,6.9 71.1,10.17 71.1,14.32 C71.1,17.37 70.33,19.94 68.79,22.04 C67.25,24.14 65.05,25.65 62.19,26.58 L71.72,39.95 L67.19,39.95 L67.19,39.93 Z"/></g><path id="Shape" fill="#231F20" d="M348.82,109.17 L339.46,88.22 L330.1,109.17 L348.82,109.17 Z M350.32,112.51 L328.59,112.51 L323.91,122.93 L319.62,122.93 L337.45,83.94 L341.52,83.94 L359.34,122.93 L355,122.93 L350.32,112.51 Z"/><path id="Path" fill="#231F20" d="M375.14,120.7 C372.04,118.99 369.61,116.63 367.84,113.6 C366.07,110.57 365.19,107.18 365.19,103.43 C365.19,99.68 366.07,96.29 367.84,93.26 C369.6,90.23 372.05,87.87 375.17,86.16 C378.29,84.45 381.78,83.6 385.64,83.6 C388.54,83.6 391.21,84.08 393.66,85.05 C396.11,86.02 398.19,87.43 399.9,89.28 L397.28,91.9 C394.23,88.82 390.39,87.28 385.75,87.28 C382.67,87.28 379.86,87.99 377.34,89.4 C374.81,90.81 372.84,92.74 371.41,95.19 C369.98,97.64 369.26,100.39 369.26,103.43 C369.26,106.47 369.97,109.22 371.41,111.67 C372.84,114.12 374.82,116.05 377.34,117.46 C379.86,118.87 382.67,119.58 385.75,119.58 C390.43,119.58 394.27,118.02 397.28,114.9 L399.9,117.52 C398.19,119.38 396.1,120.8 393.63,121.78 C391.16,122.77 388.48,123.26 385.58,123.26 C381.72,123.26 378.24,122.41 375.14,120.7"/><polygon id="Path" fill="#231F20" points="419.18 87.5 405.47 87.5 405.47 83.93 437 83.93 437 87.5 423.3 87.5 423.3 122.93 419.18 122.93"/><rect id="Rectangle" width="4.12" height="38.99" x="447.98" y="83.93" fill="#231F20"/><path id="Path" fill="#231F20" d="M475.69,120.7 C472.59,118.99 470.16,116.63 468.39,113.6 C466.63,110.57 465.74,107.18 465.74,103.43 C465.74,99.68 466.62,96.29 468.39,93.26 C470.15,90.23 472.6,87.87 475.72,86.16 C478.84,84.45 482.33,83.6 486.19,83.6 C489.09,83.6 491.76,84.08 494.21,85.05 C496.66,86.02 498.74,87.43 500.45,89.28 L497.83,91.9 C494.78,88.82 490.94,87.28 486.3,87.28 C483.22,87.28 480.41,87.99 477.89,89.4 C475.36,90.81 473.39,92.74 471.96,95.19 C470.53,97.64 469.81,100.39 469.81,103.43 C469.81,106.47 470.52,109.22 471.96,111.67 C473.39,114.12 475.37,116.05 477.89,117.46 C480.42,118.87 483.22,119.58 486.3,119.58 C490.98,119.58 494.82,118.02 497.83,114.9 L500.45,117.52 C498.74,119.38 496.65,120.8 494.18,121.78 C491.71,122.77 489.03,123.26 486.13,123.26 C482.27,123.26 478.79,122.41 475.69,120.7"/><polygon id="Path" fill="#231F20" points="513.65 83.93 513.65 122.93 541.23 122.93 541.23 119.36 517.78 119.36 517.78 104.88 537.94 104.88 537.94 101.37 517.78 101.37 517.78 87.5 540.39 87.5 540.39 83.93"/><polygon id="Path" fill="#231F20" points="241.1 139.64 245.23 139.64 245.23 175.07 267.06 175.07 267.06 178.63 241.1 178.63"/><rect id="Rectangle" width="4.12" height="38.99" x="279.56" y="139.64" fill="#231F20"/><g id="Group" fill="#231F20" transform="translate(298.000000, 139.000000)"><path id="Shape" d="M26.57,34.45 C28.35,33.26 29.24,31.4 29.24,28.88 C29.24,24.02 25.71,21.58 18.66,21.58 L4.9,21.58 L4.9,36.230123 L18.66,36.230123 C22.15,36.24 24.79,35.64 26.57,34.45 M4.9,4.04 L4.9,18.19 L17.32,18.19 C20.48,18.19 22.91,17.59 24.62,16.38 C26.33,15.17 27.18,13.42 27.18,11.12 C27.18,8.82 26.33,7.06 24.62,5.86 C22.91,4.65 20.48,4.05 17.32,4.05 L4.9,4.05 L4.9,4.04 Z M31.28,22.84 C32.67,24.49 33.37,26.62 33.37,29.22 C33.37,32.56 32.13,35.13 29.66,36.94 C27.19,38.74 23.54,39.64 18.71,39.64 L0.77,39.64 L0.77,0.65 L17.59,0.65 C21.94,0.65 25.31,1.52 27.7,3.27 C30.1,5.02 31.29,7.48 31.29,10.68 C31.29,12.83 30.76,14.66 29.7,16.17 C28.64,17.67 27.18,18.8 25.33,19.54 C27.91,20.08 29.89,21.19 31.28,22.84"/><path id="Shape" d="M68.53,21.19 C70.57,19.48 71.59,17.09 71.59,14 C71.59,10.84 70.57,8.42 68.53,6.73 C66.49,5.04 63.53,4.19 59.67,4.19 L49.31,4.19 L49.31,23.74 L59.67,23.74 C63.53,23.76 66.48,22.9 68.53,21.19 M71.81,39.63 L62.9,27.1 C61.9,27.21 60.86,27.27 59.78,27.27 L49.31,27.27 L49.31,39.64 L45.19,39.64 L45.19,0.65 L59.79,0.65 C64.76,0.65 68.66,1.84 71.49,4.22 C74.31,6.6 75.72,9.87 75.72,14.02 C75.72,17.07 74.95,19.64 73.41,21.74 C71.87,23.84 69.67,25.35 66.81,26.28 L76.34,39.65 L71.81,39.65 L71.81,39.63 Z"/></g><path id="Shape" fill="#231F20" d="M410.81,164.87 L401.45,143.92 L392.09,164.87 L410.81,164.87 Z M412.32,168.22 L390.59,168.22 L385.91,178.64 L381.62,178.64 L399.45,139.65 L403.52,139.65 L421.35,178.64 L417,178.64 L412.32,168.22 Z"/><path id="Shape" fill="#231F20" d="M455.54,160.19 C457.58,158.48 458.6,156.09 458.6,153 C458.6,149.84 457.58,147.42 455.54,145.73 C453.5,144.04 450.55,143.19 446.68,143.19 L436.32,143.19 L436.32,162.74 L446.68,162.74 C450.55,162.76 453.5,161.9 455.54,160.19 M458.83,178.63 L449.92,166.1 C448.92,166.21 447.88,166.27 446.8,166.27 L436.33,166.27 L436.33,178.64 L432.21,178.64 L432.21,139.65 L446.81,139.65 C451.78,139.65 455.68,140.84 458.51,143.22 C461.33,145.6 462.74,148.87 462.74,153.02 C462.74,156.07 461.97,158.64 460.43,160.74 C458.89,162.84 456.69,164.35 453.83,165.28 L463.36,178.65 L458.83,178.65 L458.83,178.63 Z"/><polygon id="Path" fill="#231F20" points="489.69 165.15 489.69 178.63 485.62 178.63 485.62 165.15 470.03 139.64 474.43 139.64 487.8 161.53 501.17 139.64 505.29 139.64"/></g></g></svg>