<svg xmlns="http://www.w3.org/2000/svg" xmlns:xlink="http://www.w3.org/1999/xlink" width="338" height="171" version="1.1" viewBox="0 0 338 171"><title>Untitled 2</title><g id="Page-1" fill="none" fill-rule="evenodd" stroke="none" stroke-width="1"><g id="loop-labels-path" transform="translate(1.000000, 1.000000)"><path id="Path" fill="#231F20" fill-rule="nonzero" d="M221.19,77.48 C221.19,77.48 222.78,101.23 245.29,123.74"/><path id="Path" stroke="#231F20" stroke-linecap="round" stroke-width="15.72" d="M221.19,77.48 C221.19,77.48 222.78,101.23 245.29,123.74"/><path id="Path" fill="#E2128D" fill-rule="nonzero" d="M246.18,113.71 C243.72,112.59 241.18,111.33 238.6,109.95 C231.272349,105.973739 224.159167,101.61437 217.29,96.89 C206.69,89.68 196.62,81.89 188.74,75.54 C185.44,72.87 182.53,70.45 180.12,68.41 C182.12,66.71 184.47,64.76 187.12,62.61 C192.39,58.32 198.77,53.28 205.72,48.16 C210.93,44.32 216.45,40.43 222.04,36.78 C229.750885,31.6373452 237.829312,27.0683714 246.21,23.11 L246.21,4.24 C245.32,4.58 244.43,4.91 243.54,5.24 C239.061071,7.075395 234.681698,9.1449158 230.42,11.44 C222.541007,15.6980274 214.893582,20.3712682 207.51,25.44 C196.36,33.03 185.95,41.06 177.8,47.65 C173.8,50.92 170.28,53.83 167.55,56.16 C162.55,51.86 154.91,45.56 145.95,38.72 C142.119116,35.9131842 136.746554,36.6880643 133.864953,40.4630162 C130.983352,44.237968 131.65244,49.624728 135.37,52.58 C143.28,58.58 150.13,64.25 154.96,68.34 C152.96,70.03 150.61,71.99 147.96,74.13 C142.7,78.43 136.31,83.47 129.37,88.59 C124.16,92.43 118.63,96.31 113.04,99.97 C105.184132,105.224327 96.9365782,109.867964 88.37,113.86 C84.8861831,115.463443 81.2858771,116.800604 77.6,117.86 C74.8914346,118.670524 72.0864786,119.114474 69.26,119.18 C50.9248975,119.43714 33.8714489,109.80277 24.6288642,93.965575 C15.3862795,78.12838 15.3862795,58.54162 24.6288642,42.704425 C33.8714489,26.8672304 50.9248975,17.2328599 69.26,17.49 C71.4343538,17.5318812 73.5974458,17.8135862 75.71,18.33 C80.0843431,19.4235195 84.3438159,20.9337571 88.43,22.84 C93.4424842,25.131707 98.3294007,27.6886592 103.07,30.5 C107.176166,32.5836922 112.194758,31.1156598 114.530656,27.147543 C116.866554,23.1794261 115.714597,18.0789966 111.9,15.5 L111.9,15.5 C104.96569,11.3372776 97.7130884,7.7293676 90.21,4.71 C86.7741041,3.3490619 83.2450576,2.2362092 79.65,1.38 C76.2467043,0.5566107 72.7612499,0.1205096 69.26,0.08 C44.6672015,-0.2176139 21.814089,12.7319512 9.43097387,33.9817223 C-2.9521413,55.231493 -2.9521413,81.498507 9.43097387,102.748278 C21.814089,123.998049 44.6672015,136.947614 69.26,136.65 C71.8332339,136.634166 74.3999797,136.389873 76.93,135.92 C81.9380464,134.948988 86.8335561,133.467938 91.54,131.5 C96.0198999,129.663077 100.399367,127.590173 104.66,125.29 C112.540294,121.034234 120.187837,116.360921 127.57,111.29 C138.73,103.71 149.14,95.68 157.28,89.09 C161.28,85.82 164.8,82.9 167.53,80.58 C169.87,82.58 172.76,84.99 176.08,87.7 C181.52,92.14 188.08,97.35 195.35,102.7 C200.77,106.7 206.56,110.77 212.48,114.64 C221.102724,120.392138 230.152404,125.476941 239.55,129.85 C241.78,130.85 243.99,131.77 246.19,132.59 L246.19,113.71 L246.18,113.71 Z"/><path id="Path" fill="#5E4FA1" fill-rule="nonzero" d="M31.14,125 C42.4151582,132.624442 55.7189414,136.689777 69.33,136.670162 C71.9014962,136.675021 74.4683213,136.450801 77,136 C81.0936972,135.218924 85.1095978,134.074392 89,132.58 L89,113.67 L88.42,113.93 C84.932828,115.533632 81.3291841,116.870791 77.64,117.93 C74.934654,118.739643 72.1331201,119.183583 69.31,119.25 C50.9748975,119.50714 33.9214489,109.87277 24.6788642,94.035575 C15.4362795,78.19838 15.4362795,58.61162 24.6788642,42.774425 C33.9214489,26.9372304 50.9748975,17.3028599 69.31,17.56 C70.840304,17.5750893 72.3662651,17.7256775 73.87,18.01 C77.7025232,18.7744847 81.4481519,19.9236355 85.05,21.44 C86.34,21.96 87.66,22.53 89,23.14 L89,4.27 C86.75,3.43 84.51,2.69 82.28,2.08 C78.0564547,0.8311729 73.6836068,0.1584271 69.28,0.08 C39.2470621,0.0765927 12.7380587,19.6976876 3.96818688,48.421662 C-4.80168498,77.145637 6.22691231,108.227539 31.14,125 L31.14,125 Z"/><path id="Path" fill="#E2128D" fill-rule="nonzero" d="M224.38,54.8 C222.64,51.91 219.79,51.91 218.05,54.8 L207.55,72.25 C205.81,75.15 207.15,77.52 210.55,77.52 L231.92,77.52 C235.3,77.52 236.64,75.15 234.92,72.25 L224.42,54.8 L224.38,54.8 Z"/><path id="Path" fill="#E2128D" fill-rule="nonzero" d="M126.59,30.16 C123.09,29.6 121.27,31.86 122.59,35.16 L131.25,57.38 C132.53,60.68 135.41,61.12 137.63,58.38 L152.5,39.91 C154.72,37.14 153.68,34.44 150.17,33.91 L126.62,30.21 L126.59,30.16 Z"/><path id="Path" fill="#E2128D" fill-rule="nonzero" d="M221.19,77 C221.19,77 222.78,100.75 245.29,123.25"/><path id="Path" stroke="#E2128D" stroke-linecap="round" stroke-width="15.72" d="M221.19,77 C221.19,77 222.78,100.75 245.29,123.25"/><path id="Path" fill="#F36D3E" fill-rule="nonzero" d="M304,11.79 C292.720834,4.1739542 279.419689,0.1094254 265.81,0.119958899 C263.240078,0.1358463 260.676654,0.3801414 258.15,0.85 C254.05773,1.6370775 250.042353,2.7814598 246.15,4.27 L246.15,23.14 L246.73,22.88 C250.217172,21.2763683 253.820816,19.9392092 257.51,18.88 C260.21645,18.0752153 263.017332,17.6313782 265.84,17.56 C284.175102,17.3028599 301.228551,26.9372304 310.471136,42.774425 C319.713721,58.61162 319.713721,78.19838 310.471136,94.035575 C301.228551,109.87277 284.175102,119.50714 265.84,119.25 C264.309429,119.239907 262.78302,119.089275 261.28,118.8 C257.451786,118.035932 253.709762,116.89021 250.11,115.38 C248.82,114.86 247.5,114.28 246.11,113.67 L246.11,132.55 C248.37,133.39 250.61,134.12 252.83,134.74 C257.053759,135.987873 261.426476,136.660599 265.83,136.7401 C295.886667,136.77628 322.43225,117.153701 331.213442,88.40835 C339.994635,59.662999 328.946017,28.5560603 304,11.79 L304,11.79 Z"/><path id="Path" stroke="#F36D3E" stroke-width=".52" d="M304,11.79 C292.720834,4.1739542 279.419689,0.1094254 265.81,0.119958899 C263.240078,0.1358463 260.676654,0.3801414 258.15,0.85 C254.05773,1.6370775 250.042353,2.7814598 246.15,4.27 L246.15,23.14 L246.73,22.88 C250.217172,21.2763683 253.820816,19.9392092 257.51,18.88 C260.21645,18.0752153 263.017332,17.6313782 265.84,17.56 C284.175102,17.3028599 301.228551,26.9372304 310.471136,42.774425 C319.713721,58.61162 319.713721,78.19838 310.471136,94.035575 C301.228551,109.87277 284.175102,119.50714 265.84,119.25 C264.309429,119.239907 262.78302,119.089275 261.28,118.8 C257.451786,118.035932 253.709762,116.89021 250.11,115.38 C248.82,114.86 247.5,114.28 246.11,113.67 L246.11,132.55 C248.37,133.39 250.61,134.12 252.83,134.74 C257.053759,135.987873 261.426476,136.660599 265.83,136.7401 C295.886667,136.77628 322.43225,117.153701 331.213442,88.40835 C339.994635,59.662999 328.946017,28.5560603 304,11.79 L304,11.79 Z"/><line id="Path" x1="8.11" x2="327.27" y1="160.16" y2="160.16" stroke="#2F2E7D" stroke-linecap="round" stroke-width="18.22"/><path id="Shape" fill="#FFF" fill-rule="nonzero" d="M120.34,158.22 L120.34,156.61 L113.78,156.61 L113.78,165.28 L115.78,165.28 L115.78,162.12 L119.78,162.12 L119.78,160.51 L115.78,160.51 L115.78,158.22 L120.34,158.22 Z M128.29,165.43 C129.136029,165.4454 129.972127,165.245838 130.72,164.85 C132.159597,164.078826 133.058141,162.578141 133.058141,160.945 C133.058141,159.311859 132.159597,157.811174 130.72,157.04 C129.192307,156.266597 127.387693,156.266597 125.86,157.04 C125.155931,157.409943 124.567656,157.967074 124.16,158.65 C123.346452,160.075421 123.346452,161.824579 124.16,163.25 C124.568277,163.929897 125.156629,164.48364 125.86,164.85 C126.607873,165.245838 127.443971,165.4454 128.29,165.43 L128.29,165.43 Z M128.29,163.72 C127.803818,163.72874 127.324068,163.60794 126.9,163.37 C126.479382,163.137177 126.132823,162.790618 125.9,162.37 C125.433881,161.47011 125.433881,160.39989 125.9,159.5 C126.13578,159.081617 126.481617,158.73578 126.9,158.5 C127.768134,158.034208 128.811866,158.034208 129.68,158.5 C130.100618,158.732823 130.447177,159.079382 130.68,159.5 C131.167287,160.394616 131.167287,161.475384 130.68,162.37 C130.44986,162.792632 130.102632,163.13986 129.68,163.37 C129.256478,163.609307 128.776349,163.730203 128.29,163.72 L128.29,163.72 Z M140.88,165.43 C141.965173,165.541116 143.042001,165.152804 143.806507,164.374681 C144.571013,163.596557 144.940255,162.513042 144.81,161.43 L144.81,156.57 L142.81,156.57 L142.81,161.35 C142.861795,161.980948 142.684264,162.609407 142.31,163.12 C141.936197,163.51008 141.409131,163.71505 140.87,163.68 C139.59,163.68 138.94,162.91 138.94,161.35 L138.94,156.57 L136.94,156.57 L136.94,161.43 C136.859576,162.502202 137.220836,163.560695 137.94,164.36 C138.727023,165.072874 139.7707,165.434008 140.83,165.36 L140.88,165.43 Z M155.24,156.61 L155.24,161.88 L150.93,156.61 L149.27,156.61 L149.27,165.28 L151.27,165.28 L151.27,160 L155.6,165.26 L157.25,165.26 L157.25,156.59 L155.24,156.61 Z M161.76,165.28 L165.7,165.28 C166.564626,165.303581 167.422191,165.118346 168.2,164.74 C168.897124,164.410116 169.484018,163.885732 169.89,163.23 C170.690397,161.815368 170.690397,160.084632 169.89,158.67 C169.485504,158.010569 168.898466,157.482582 168.2,157.15 C167.420557,156.776404 166.564153,156.591421 165.7,156.61 L161.76,156.61 L161.76,165.28 L161.76,165.28 Z M163.76,163.64 L163.76,158.26 L165.59,158.26 C166.350407,158.221616 167.096052,158.479724 167.67,158.98 C168.697775,160.088412 168.697775,161.801588 167.67,162.91 C167.094429,163.408475 166.35085,163.669443 165.59,163.64 L163.76,163.64 Z M180.82,165.28 L182.93,165.28 L179.05,156.61 L177.05,156.61 L173.18,165.28 L175.24,165.28 L176.01,163.43 L180.01,163.43 L180.77,165.28 L180.82,165.28 Z M176.67,161.9 L178.05,158.58 L179.42,161.9 L176.67,161.9 Z M187.67,165.28 L189.67,165.28 L189.67,158.28 L192.45,158.28 L192.45,156.65 L184.89,156.65 L184.89,158.28 L187.67,158.28 L187.67,165.28 Z M196.01,165.28 L198.01,165.28 L198.01,156.61 L196.01,156.61 L196.01,165.28 Z M206.75,165.43 C207.596029,165.4454 208.432127,165.245838 209.18,164.85 C210.628826,164.093542 211.526691,162.584201 211.5,160.95 C211.509785,160.140778 211.295181,159.344666 210.88,158.65 C210.466828,157.971513 209.879937,157.415693 209.18,157.04 C207.652307,156.266597 205.847693,156.266597 204.32,157.04 C203.615931,157.409943 203.027656,157.967074 202.62,158.65 C201.794141,160.072131 201.794141,161.827869 202.62,163.25 C203.028277,163.929897 203.616629,164.48364 204.32,164.85 C205.067873,165.245838 205.903971,165.4454 206.75,165.43 L206.75,165.43 Z M206.75,163.72 C206.263818,163.72874 205.784068,163.60794 205.36,163.37 C204.939382,163.137177 204.592823,162.790618 204.36,162.37 C203.893881,161.47011 203.893881,160.39989 204.36,159.5 C204.59578,159.081617 204.941617,158.73578 205.36,158.5 C206.228134,158.034208 207.271866,158.034208 208.14,158.5 C208.560618,158.732823 208.907177,159.079382 209.14,159.5 C209.606119,160.39989 209.606119,161.47011 209.14,162.37 C208.90986,162.792632 208.562632,163.13986 208.14,163.37 C207.716478,163.609307 207.236349,163.730203 206.75,163.72 L206.75,163.72 Z M221.46,156.61 L221.46,161.88 L217.15,156.61 L215.49,156.61 L215.49,165.28 L217.49,165.28 L217.49,160 L221.81,165.26 L223.46,165.26 L223.46,156.59 L221.46,156.61 Z"/><path id="Shape" fill="#231F20" fill-rule="nonzero" d="M153.88,125.27 L150.5,125.27 L150.5,134 L151.74,134 L151.74,131.37 L153.88,131.37 C154.831628,131.424365 155.771391,131.137117 156.53,130.56 C157.152225,129.991624 157.506692,129.187743 157.506692,128.345 C157.506692,127.502257 157.152225,126.698376 156.53,126.13 C155.771391,125.552883 154.831628,125.265635 153.88,125.32 L153.88,125.27 Z M153.88,130.27 L151.78,130.27 L151.78,126.38 L153.88,126.38 C154.519382,126.337314 155.154236,126.513662 155.68,126.88 C156.074273,127.257285 156.297258,127.779294 156.297258,128.325 C156.297258,128.870706 156.074273,129.392715 155.68,129.77 C155.154236,130.136338 154.519382,130.312686 153.88,130.27 L153.88,130.27 Z M159,134 L160.19,134 L160.19,127.43 L159,127.43 L159,134 Z M159.59,126.16 C159.805242,126.168813 160.014749,126.089345 160.17,125.94 C160.318578,125.787598 160.4012,125.582839 160.400026,125.37 C160.401048,125.165991 160.317826,124.9706 160.17,124.83 C160.010823,124.68809 159.803132,124.612892 159.59,124.62 C159.377791,124.611589 159.17153,124.691198 159.02,124.84 C158.868055,124.986058 158.784577,125.189308 158.79,125.4 C158.783857,125.605002 158.867928,125.802386 159.02,125.94 C159.17153,126.088802 159.377791,126.168411 159.59,126.16 L159.59,126.16 Z M167.1,127.43 L164.8,132.7 L162.54,127.43 L161.3,127.43 L164.18,134 L165.39,134 L168.27,127.43 L167.1,127.43 Z M172.01,134.07 C172.620918,134.082336 173.224368,133.93406 173.76,133.64 C174.268063,133.358169 174.689811,132.943335 174.98,132.44 C175.566855,131.36132 175.566855,130.05868 174.98,128.98 C174.686814,128.48157 174.265574,128.070688 173.76,127.79 C173.221789,127.503684 172.619532,127.359143 172.01,127.37 C171.397428,127.360491 170.792268,127.504904 170.25,127.79 C169.74233,128.067864 169.320415,128.479404 169.03,128.98 C168.443145,130.05868 168.443145,131.36132 169.03,132.44 C169.317303,132.94556 169.73976,133.361092 170.25,133.64 C170.789766,133.932717 171.396067,134.080848 172.01,134.07 L172.01,134.07 Z M172.01,133.07 C171.611287,133.073784 171.218439,132.973848 170.87,132.78 C170.539856,132.579995 170.267567,132.297365 170.08,131.96 C169.69358,131.203136 169.69358,130.306864 170.08,129.55 C170.261937,129.208507 170.535522,128.924532 170.87,128.73 C171.219217,128.539201 171.612126,128.442697 172.01,128.45 C172.404814,128.441633 172.79477,128.538259 173.14,128.73 C173.477222,128.921016 173.751679,129.205896 173.93,129.55 C174.303776,130.309856 174.303776,131.200144 173.93,131.96 C173.748063,132.301493 173.474478,132.585468 173.14,132.78 C172.795559,132.974778 172.405669,133.074838 172.01,133.07 L172.01,133.07 Z M180.39,132.8 C180.123839,133.005273 179.796092,133.114522 179.46,133.11 C179.173612,133.128295 178.893166,133.022673 178.69,132.82 C178.504115,132.58865 178.411384,132.296192 178.43,132 L178.43,128.45 L180.31,128.45 L180.31,127.45 L178.43,127.45 L178.43,126.01 L177.24,126.01 L177.24,127.45 L176.12,127.45 L176.12,128.45 L177.24,128.45 L177.24,132 C177.2043,132.562234 177.399299,133.114731 177.78,133.53 C178.203968,133.901782 178.757026,134.09212 179.32,134.06 C179.587932,134.060786 179.854387,134.020312 180.11,133.94 C180.347394,133.871699 180.568502,133.756042 180.76,133.6 L180.39,132.75 L180.39,132.8 Z"/><path id="Shape" fill="#231F20" fill-rule="nonzero" d="M145.39,119.18 C146.209662,119.187518 147.017961,118.988023 147.74,118.6 C148.42429,118.229816 148.994735,117.680115 149.39,117.01 C149.791273,116.321822 149.995394,115.536475 149.98,114.74 C149.993656,113.940568 149.789716,113.152463 149.39,112.46 C148.99451,111.792614 148.423894,111.246206 147.74,110.88 C146.261753,110.10643 144.498247,110.10643 143.02,110.88 C142.33357,111.24725 141.762413,111.797638 141.37,112.47 C140.752369,113.494074 140.577127,114.725077 140.884447,115.880824 C141.191766,117.036571 141.955292,118.017951 143,118.6 C143.728301,118.990485 144.543683,119.19003 145.37,119.18 L145.39,119.18 Z M145.39,118.07 C144.785568,118.081169 144.188865,117.932856 143.66,117.64 C143.151937,117.358169 142.730189,116.943335 142.44,116.44 C142.145231,115.922355 141.993379,115.335651 142,114.74 C141.993517,114.141198 142.145303,113.551306 142.44,113.03 C142.733186,112.53157 143.154426,112.120688 143.66,111.84 C144.18808,111.544102 144.784719,111.392356 145.39,111.4 C145.988975,111.392081 146.579236,111.543961 147.1,111.84 C147.600462,112.124023 148.017676,112.534341 148.31,113.03 C148.604697,113.551306 148.756483,114.141198 148.75,114.74 C148.756621,115.335651 148.604769,115.922355 148.31,116.44 C148.020971,116.940805 147.603186,117.355137 147.1,117.64 C146.578263,117.932552 145.98806,118.080966 145.39,118.07 L145.39,118.07 Z M155.19,112.45 C154.728113,112.442984 154.270431,112.538619 153.85,112.73 C153.450266,112.910492 153.105298,113.193366 152.85,113.55 L152.85,112.55 L151.71,112.55 L151.71,121.55 L152.9,121.55 L152.9,118.15 C153.162623,118.494698 153.50606,118.769448 153.9,118.95 C154.308942,119.13223 154.752314,119.224315 155.2,119.22 C155.796785,119.230724 156.38609,119.085982 156.91,118.8 C157.407016,118.526181 157.816181,118.117016 158.09,117.62 C158.385324,117.081243 158.533626,116.474239 158.52,115.86 C158.53328,115.248978 158.384945,114.645287 158.09,114.11 C157.814679,113.616672 157.405653,113.211112 156.91,112.94 C156.38609,112.654018 155.796785,112.509276 155.2,112.52 L155.19,112.45 Z M155.09,118.11 C154.694614,118.112508 154.305314,118.012599 153.96,117.82 C153.625522,117.625468 153.351937,117.341493 153.17,117 C152.972493,116.627707 152.872711,116.211376 152.88,115.79 C152.872492,115.370551 152.975987,114.956569 153.18,114.59 C153.359878,114.249588 153.63419,113.968331 153.97,113.78 C154.309428,113.581853 154.697061,113.481483 155.09,113.49 C155.484814,113.481633 155.87477,113.578259 156.22,113.77 C156.556806,113.960347 156.833851,114.240855 157.02,114.58 C157.216287,114.952753 157.315993,115.368767 157.31,115.79 C157.311152,116.213121 157.204462,116.629557 157,117 C156.8116,117.34006 156.535305,117.623262 156.2,117.82 C155.855559,118.014778 155.465669,118.114838 155.07,118.11 L155.09,118.11 Z M163.48,117.84 C163.213839,118.045273 162.886092,118.154522 162.55,118.15 C162.267019,118.165392 161.990795,118.059991 161.79,117.86 C161.595982,117.632632 161.499022,117.33816 161.52,117.04 L161.52,113.49 L163.41,113.49 L163.41,112.49 L161.52,112.49 L161.52,111.05 L160.33,111.05 L160.33,112.49 L159.22,112.49 L159.22,113.49 L160.33,113.49 L160.33,117.09 C160.288414,117.654872 160.488289,118.210888 160.88,118.62 C161.299222,118.993108 161.849811,119.183835 162.41,119.15 C162.681214,119.150864 162.950976,119.110399 163.21,119.03 C163.444391,118.961753 163.662239,118.846022 163.85,118.69 L163.48,117.84 L163.48,117.84 Z M165.29,119.08 L166.48,119.08 L166.48,112.51 L165.29,112.51 L165.29,119.08 Z M165.88,111.24 C166.097342,111.249887 166.3085,111.166152 166.46,111.01 C166.60991,110.862565 166.693008,110.66024 166.69,110.45 C166.691048,110.245991 166.607826,110.0506 166.46,109.91 C166.300823,109.76809 166.093132,109.692892 165.88,109.7 C165.66564,109.6904 165.457668,109.774319 165.31,109.93 C165.162765,110.073099 165.079693,110.269682 165.079693,110.475 C165.079693,110.680318 165.162765,110.876901 165.31,111.02 C165.46153,111.168802 165.667791,111.248411 165.88,111.24 Z M171.56,119.15 C172.170918,119.162336 172.774368,119.01406 173.31,118.72 C173.818063,118.438169 174.239811,118.023335 174.53,117.52 C175.116855,116.44132 175.116855,115.13868 174.53,114.06 C174.239585,113.559404 173.81767,113.147864 173.31,112.87 C172.771789,112.583684 172.169532,112.439143 171.56,112.45 C170.947428,112.440491 170.342268,112.584904 169.8,112.87 C169.290143,113.144896 168.867503,113.557143 168.58,114.06 C167.993145,115.13868 167.993145,116.44132 168.58,117.52 C168.867303,118.02556 169.28976,118.441092 169.8,118.72 C170.339766,119.012717 170.946067,119.160848 171.56,119.15 L171.56,119.15 Z M171.56,118.15 C171.164331,118.154838 170.774441,118.054778 170.43,117.86 C170.094695,117.663262 169.8184,117.38006 169.63,117.04 C169.432493,116.667707 169.332711,116.251376 169.34,115.83 C169.334007,115.408767 169.433713,114.992753 169.63,114.62 C169.816149,114.280855 170.093194,114.000347 170.43,113.81 C171.137072,113.436636 171.982928,113.436636 172.69,113.81 C173.02581,113.998331 173.300122,114.279588 173.48,114.62 C173.673222,114.993509 173.769503,115.409579 173.76,115.83 C173.770368,116.250509 173.674038,116.666791 173.48,117.04 C173.298063,117.381493 173.024478,117.665468 172.69,117.86 C172.345559,118.054778 171.955669,118.154838 171.56,118.15 L171.56,118.15 Z M180.12,112.49 C179.642879,112.481751 179.169338,112.573734 178.73,112.76 C178.327913,112.917231 177.980396,113.188293 177.73,113.54 L177.73,112.54 L176.58,112.54 L176.58,119.11 L177.77,119.11 L177.77,115.72 C177.731575,115.129728 177.933562,114.549015 178.33,114.11 C178.735693,113.711 179.292136,113.503697 179.86,113.54 C180.344685,113.509025 180.820068,113.683211 181.17,114.02 C181.505817,114.421336 181.67096,114.938305 181.63,115.46 L181.63,119.11 L182.82,119.11 L182.82,115.3 C182.875443,114.518619 182.607958,113.748697 182.08,113.17 C181.538592,112.668655 180.81673,112.408785 180.08,112.45 L180.12,112.49 Z M186.94,119.19 C187.667864,119.228172 188.39004,119.043267 189.01,118.66 C189.496546,118.357907 189.788859,117.822634 189.78,117.25 C189.801446,116.868181 189.676249,116.492588 189.43,116.2 C189.199856,115.956725 188.910372,115.777521 188.59,115.68 C188.171333,115.550908 187.743424,115.45396 187.31,115.39 C186.91,115.31 186.6,115.25 186.39,115.19 C186.184708,115.139814 185.993324,115.044122 185.83,114.91 C185.68565,114.784571 185.604951,114.601164 185.61,114.41 C185.608976,114.132385 185.76342,113.877552 186.01,113.75 C186.362248,113.56032 186.760795,113.473679 187.16,113.5 C187.830126,113.487292 188.489738,113.667817 189.06,114.02 L189.56,113.08 C189.230331,112.876961 188.868492,112.731549 188.49,112.65 C188.058234,112.542693 187.614899,112.488955 187.17,112.49 C186.462727,112.451367 185.761715,112.640641 185.17,113.03 C184.689388,113.344766 184.4057,113.885665 184.42,114.46 C184.395005,114.85008 184.524296,115.234361 184.78,115.53 C185.017051,115.786094 185.316983,115.975706 185.65,116.08 C186.071552,116.208711 186.503021,116.302363 186.94,116.36 C187.33,116.43 187.63,116.49 187.84,116.55 C188.033391,116.59191 188.214663,116.677416 188.37,116.8 C188.509499,116.915319 188.587168,117.089149 188.58,117.27 C188.58,117.86 188.06,118.16 187.01,118.16 C186.586944,118.159056 186.166134,118.09846 185.76,117.98 C185.403027,117.86553 185.06576,117.696896 184.76,117.48 L184.26,118.42 C184.608373,118.681269 185.006548,118.868445 185.43,118.97 C185.932864,119.119948 186.455272,119.194096 186.98,119.19 L186.94,119.19 Z"/><path id="Shape" fill="#231F20" fill-rule="nonzero" d="M255.81,78.72 L261.75,78.72 L261.75,77.64 L257.05,77.64 L257.05,70.05 L255.81,70.05 L255.81,78.72 L255.81,78.72 Z M265.73,78.8 C266.341764,78.808811 266.945151,78.657103 267.48,78.36 C267.985574,78.079312 268.406814,77.66843 268.7,77.17 C269.286855,76.09132 269.286855,74.78868 268.7,73.71 C268.412497,73.207143 267.989857,72.794896 267.48,72.52 C266.944368,72.22594 266.340918,72.077664 265.73,72.09 C265.116067,72.079152 264.509766,72.227283 263.97,72.52 C263.456845,72.790386 263.033076,73.203734 262.75,73.71 C262.163145,74.78868 262.163145,76.09132 262.75,77.17 C263.040415,77.670596 263.46233,78.082136 263.97,78.36 C264.508825,78.656196 265.11518,78.807785 265.73,78.8 L265.73,78.8 Z M265.73,77.8 C265.330722,77.808599 264.936634,77.708348 264.59,77.51 C264.258148,77.316555 263.98509,77.036583 263.8,76.7 C263.603713,76.327247 263.504007,75.911233 263.51,75.49 C263.502711,75.068624 263.602493,74.652293 263.8,74.28 C263.98509,73.943417 264.258148,73.663445 264.59,73.47 C264.938439,73.276152 265.331287,73.176216 265.73,73.18 C266.125669,73.175162 266.515559,73.275222 266.86,73.47 C267.19581,73.658331 267.470122,73.939588 267.65,74.28 C267.844038,74.653209 267.940368,75.069491 267.93,75.49 C267.939503,75.910421 267.843222,76.326491 267.65,76.7 C267.470122,77.040412 267.19581,77.321669 266.86,77.51 C266.51746,77.709452 266.126255,77.80985 265.73,77.8 L265.73,77.8 Z M273.6,78.8 C274.211602,78.807422 274.814638,78.655802 275.35,78.36 C275.855574,78.079312 276.276814,77.66843 276.57,77.17 C277.156855,76.09132 277.156855,74.78868 276.57,73.71 C276.282497,73.207143 275.859857,72.794896 275.35,72.52 C274.250088,71.947275 272.939912,71.947275 271.84,72.52 C271.326845,72.790386 270.903076,73.203734 270.62,73.71 C270.033145,74.78868 270.033145,76.09132 270.62,77.17 C270.910415,77.670596 271.33233,78.082136 271.84,78.36 C272.378487,78.657055 272.985073,78.808702 273.6,78.8 L273.6,78.8 Z M273.6,77.8 C273.200722,77.808599 272.806634,77.708348 272.46,77.51 C272.125895,77.319456 271.852133,77.038764 271.67,76.7 C271.473713,76.327247 271.374007,75.911233 271.38,75.49 C271.372711,75.068624 271.472493,74.652293 271.67,74.28 C271.852133,73.941236 272.125895,73.660544 272.46,73.47 C272.808439,73.276152 273.201287,73.176216 273.6,73.18 C273.995669,73.175162 274.385559,73.275222 274.73,73.47 C275.06581,73.658331 275.340122,73.939588 275.52,74.28 C275.714038,74.653209 275.810368,75.069491 275.8,75.49 C275.809503,75.910421 275.713222,76.326491 275.52,76.7 C275.340122,77.040412 275.06581,77.321669 274.73,77.51 C274.38746,77.709452 273.996255,77.80985 273.6,77.8 L273.6,77.8 Z M282.14,72.14 C281.678017,72.131973 281.220114,72.227654 280.8,72.42 C280.402925,72.60475 280.058952,72.886808 279.8,73.24 L279.8,72.24 L278.66,72.24 L278.66,81.24 L279.85,81.24 L279.85,77.85 C280.11607,78.188808 280.45881,78.459572 280.85,78.64 C281.257568,78.827502 281.70138,78.923092 282.15,78.92 C282.747356,78.924946 283.336036,78.776915 283.86,78.49 C284.357016,78.216181 284.766181,77.807016 285.04,77.31 C285.612657,76.213605 285.612657,74.906395 285.04,73.81 C284.76151,73.316513 284.353487,72.90849 283.86,72.63 C283.335267,72.346145 282.746529,72.201543 282.15,72.21 L282.14,72.14 Z M282.04,77.8 C281.643864,77.808808 281.252938,77.708481 280.91,77.51 C280.57419,77.321669 280.299878,77.040412 280.12,76.7 C279.923713,76.327247 279.824007,75.911233 279.83,75.49 C279.821297,75.071655 279.921215,74.658202 280.12,74.29 C280.307567,73.952635 280.579856,73.670005 280.91,73.47 C281.254796,73.276106 281.644445,73.176107 282.04,73.18 C282.435669,73.175162 282.825559,73.275222 283.17,73.47 C283.504105,73.660544 283.777867,73.941236 283.96,74.28 C284.162253,74.650482 284.262341,75.068087 284.25,75.49 C284.260914,75.911765 284.160914,76.329004 283.96,76.7 C283.777867,77.038764 283.504105,77.319456 283.17,77.51 C282.82746,77.709452 282.436255,77.80985 282.04,77.8 L282.04,77.8 Z"/><path id="Shape" fill="#231F20" fill-rule="nonzero" d="M245.92,63.85 L249.58,63.85 C250.424596,63.865527 251.260827,63.680459 252.02,63.31 C252.706425,62.965696 253.27923,62.431077 253.67,61.77 C254.457345,60.366195 254.457345,58.653805 253.67,57.25 C253.277737,56.592619 252.705074,56.061604 252.02,55.72 C251.260827,55.349541 250.424596,55.164473 249.58,55.18 L245.92,55.18 L245.92,63.85 Z M247.16,62.77 L247.16,56.25 L249.5,56.25 C250.140604,56.236522 250.775072,56.377133 251.35,56.66 C251.865064,56.916487 252.295503,57.315684 252.59,57.81 C253.162476,58.874585 253.162476,60.155415 252.59,61.22 C252.297621,61.713554 251.866341,62.110053 251.35,62.36 C250.776278,62.646286 250.140956,62.787087 249.5,62.77 L247.16,62.77 Z M261.92,60.6 C261.930804,59.987286 261.786315,59.38181 261.5,58.84 C261.238977,58.341071 260.839716,57.927923 260.35,57.65 C259.839666,57.356206 259.258727,57.207514 258.67,57.22 C258.078244,57.20871 257.4944,57.357262 256.98,57.65 C256.483917,57.929556 256.07536,58.341575 255.8,58.84 C255.513089,59.371185 255.36517,59.966301 255.37,60.57 C255.362356,61.175281 255.514102,61.77192 255.81,62.3 C256.105867,62.809324 256.539028,63.225159 257.06,63.5 C257.632376,63.792048 258.267495,63.93967 258.91,63.93 C259.416841,63.933726 259.919549,63.838619 260.39,63.65 C260.818236,63.479927 261.19904,63.208904 261.5,62.86 L260.84,62.09 C260.354916,62.62172 259.659075,62.911043 258.94,62.88 C258.358852,62.901605 257.788717,62.717462 257.33,62.36 C256.897183,62.014456 256.620045,61.510568 256.56,60.96 L261.89,60.96 C261.897921,60.840131 261.897921,60.719869 261.89,60.6 L261.92,60.6 Z M258.67,58.23 C259.196561,58.208156 259.710463,58.395029 260.1,58.75 C260.488591,59.102477 260.731173,59.587641 260.78,60.11 L256.56,60.11 C256.612885,59.58594 256.854576,59.099004 257.24,58.74 C257.63487,58.395023 258.145944,58.212752 258.67,58.23 L258.67,58.23 Z M263.57,63.85 L264.76,63.85 L264.76,54.66 L263.57,54.66 L263.57,63.85 Z M267.02,63.85 L268.21,63.85 L268.21,57.28 L267,57.28 L267,63.85 L267.02,63.85 Z M267.62,56.02 C267.833472,56.024582 268.039489,55.941452 268.19,55.79 C268.344103,55.64542 268.427997,55.441157 268.42,55.23 C268.428963,55.024476 268.344402,54.825942 268.19,54.69 C268.03847,54.541198 267.832209,54.461589 267.62,54.47 C267.403506,54.465007 267.194236,54.547993 267.04,54.7 C266.891627,54.844358 266.808562,55.042994 266.81,55.25 C266.80738,55.457237 266.890633,55.656321 267.04,55.8 C267.197633,55.945539 267.405499,56.024385 267.62,56.02 Z M275.13,57.28 L272.82,62.55 L270.57,57.28 L269.33,57.28 L272.2,63.85 L273.42,63.85 L276.29,57.28 L275.13,57.28 Z M283.13,60.6 C283.140804,59.987286 282.996315,59.38181 282.71,58.84 C282.448977,58.341071 282.049716,57.927923 281.56,57.65 C281.049666,57.356206 280.468727,57.207514 279.88,57.22 C279.288244,57.20871 278.7044,57.357262 278.19,57.65 C277.693917,57.929556 277.28536,58.341575 277.01,58.84 C276.723089,59.371185 276.57517,59.966301 276.58,60.57 C276.572356,61.175281 276.724102,61.77192 277.02,62.3 C277.315867,62.809324 277.749028,63.225159 278.27,63.5 C278.842376,63.792048 279.477495,63.93967 280.12,63.93 C280.626841,63.933726 281.129549,63.838619 281.6,63.65 C282.028236,63.479927 282.40904,63.208904 282.71,62.86 L282.05,62.09 C281.564916,62.62172 280.869075,62.911043 280.15,62.88 C279.568852,62.901605 278.998717,62.717462 278.54,62.36 C278.107183,62.014456 277.830045,61.510568 277.77,60.96 L283.1,60.96 C283.107921,60.840131 283.107921,60.719869 283.1,60.6 L283.13,60.6 Z M279.88,58.23 C280.406561,58.208156 280.920463,58.395029 281.31,58.75 C281.698591,59.102477 281.941173,59.587641 281.99,60.11 L277.77,60.11 C277.822885,59.58594 278.064576,59.099004 278.45,58.74 C278.84487,58.395023 279.355944,58.212752 279.88,58.23 L279.88,58.23 Z M285.88,58.39 L285.88,57.28 L284.74,57.28 L284.74,63.85 L286,63.85 L286,60.58 C285.958596,59.982028 286.156438,59.3921 286.55,58.94 C286.951591,58.540017 287.504037,58.329215 288.07,58.36 L288.34,58.36 L288.34,57.21 C287.830233,57.195702 287.323961,57.298325 286.86,57.51 C286.470921,57.694478 286.151769,57.9996 285.95,58.38 L285.88,58.39 Z M294.65,57.28 L292.38,62.54 L290.09,57.28 L288.85,57.28 L291.75,63.84 L291.54,64.3 C291.432078,64.600606 291.249735,64.868959 291.01,65.08 C290.805972,65.241704 290.549988,65.323476 290.29,65.31 C289.848484,65.313296 289.423845,65.140562 289.11,64.83 L288.6,65.72 C288.811145,65.926877 289.068099,66.081049 289.35,66.17 C289.651521,66.278064 289.969707,66.332223 290.29,66.33 C290.772513,66.343041 291.246232,66.199171 291.64,65.92 C292.09675,65.550993 292.442789,65.063078 292.64,64.51 L295.82,57.28 L294.65,57.28 Z"/><path id="Shape" fill="#231F20" fill-rule="nonzero" d="M54.78,78.72 L60.71,78.72 L60.71,77.64 L56,77.64 L56,70.05 L54.76,70.05 L54.76,78.72 L54.78,78.72 Z M64.69,78.8 C65.3017643,78.808811 65.9051512,78.657103 66.44,78.36 C66.9476696,78.082136 67.3695851,77.670596 67.66,77.17 C68.2468554,76.09132 68.2468554,74.78868 67.66,73.71 C67.3769241,73.203734 66.9531552,72.790386 66.44,72.52 C65.9043681,72.22594 65.3009179,72.077664 64.69,72.09 C64.0760674,72.079152 63.4697662,72.227283 62.93,72.52 C62.4168448,72.790386 61.9930759,73.203734 61.71,73.71 C61.1231446,74.78868 61.1231446,76.09132 61.71,77.17 C62.0004149,77.670596 62.4223304,78.082136 62.93,78.36 C63.4688249,78.656196 64.07518,78.807785 64.69,78.8 L64.69,78.8 Z M64.69,77.8 C64.2937449,77.80985 63.9025404,77.709452 63.56,77.51 C63.223194,77.319653 62.9461489,77.039145 62.76,76.7 C62.5637134,76.327247 62.4640075,75.911233 62.47,75.49 C62.4627112,75.068624 62.5624932,74.652293 62.76,74.28 C62.9461489,73.940855 63.223194,73.660347 63.56,73.47 C63.9044405,73.275222 64.2943306,73.175162 64.69,73.18 C65.0887133,73.176216 65.4815615,73.276152 65.83,73.47 C66.1621152,73.659847 66.4328164,73.94096 66.61,74.28 C66.8075068,74.652293 66.9072888,75.068624 66.9,75.49 C66.9059925,75.911233 66.8062866,76.327247 66.61,76.7 C66.4328164,77.03904 66.1621152,77.320153 65.83,77.51 C65.4833661,77.708348 65.0892783,77.808599 64.69,77.8 L64.69,77.8 Z M72.56,78.8 C73.1717643,78.808811 73.7751512,78.657103 74.31,78.36 C74.8155739,78.079312 75.2368137,77.66843 75.53,77.17 C76.1168554,76.09132 76.1168554,74.78868 75.53,73.71 C75.2424972,73.207143 74.8198574,72.794896 74.31,72.52 C73.7743681,72.22594 73.1709179,72.077664 72.56,72.09 C71.9460674,72.079152 71.3397662,72.227283 70.8,72.52 C70.2868448,72.790386 69.8630759,73.203734 69.58,73.71 C68.9931446,74.78868 68.9931446,76.09132 69.58,77.17 C69.8704149,77.670596 70.2923304,78.082136 70.8,78.36 C71.3388249,78.656196 71.94518,78.807785 72.56,78.8 L72.56,78.8 Z M72.56,77.8 C72.1637449,77.80985 71.7725404,77.709452 71.43,77.51 C71.093194,77.319653 70.8161489,77.039145 70.63,76.7 C70.4337134,76.327247 70.3340075,75.911233 70.34,75.49 C70.3327112,75.068624 70.4324932,74.652293 70.63,74.28 C70.8161489,73.940855 71.093194,73.660347 71.43,73.47 C72.1338828,73.083981 72.9861172,73.083981 73.69,73.47 C74.0258095,73.658331 74.3001216,73.939588 74.48,74.28 C74.6775068,74.652293 74.7772888,75.068624 74.77,75.49 C74.7759925,75.911233 74.6762866,76.327247 74.48,76.7 C74.3001216,77.040412 74.0258095,77.321669 73.69,77.51 C73.3474596,77.709452 72.9562551,77.80985 72.56,77.8 L72.56,77.8 Z M81.1,72.14 C80.6380168,72.131973 80.1801143,72.227654 79.76,72.42 C79.3605167,72.600896 79.0156448,72.883691 78.76,73.24 L78.76,72.24 L77.62,72.24 L77.62,81.24 L78.81,81.24 L78.81,77.85 C79.0729352,78.191918 79.41651,78.463342 79.81,78.64 C80.2182754,78.825372 80.6616132,78.92086 81.11,78.92 C81.7073557,78.924946 82.2960362,78.776915 82.82,78.49 C83.3170164,78.216181 83.7261815,77.807016 84,77.31 C84.5726568,76.213605 84.5726568,74.906395 84,73.81 C83.7261815,73.312984 83.3170164,72.903819 82.82,72.63 C82.295267,72.346145 81.7065288,72.201543 81.11,72.21 L81.1,72.14 Z M81,77.8 C80.6040409,77.807283 80.2135173,77.70706 79.87,77.51 C79.5341905,77.321669 79.2598784,77.040412 79.08,76.7 C78.8837134,76.327247 78.7840075,75.911233 78.79,75.49 C78.7812967,75.071655 78.8812147,74.658202 79.08,74.29 C79.2683998,73.94994 79.5446952,73.666738 79.88,73.47 C80.580304,73.083881 81.429696,73.083881 82.13,73.47 C82.466806,73.660347 82.7438511,73.940855 82.93,74.28 C83.1275068,74.652293 83.2272888,75.068624 83.22,75.49 C83.2259925,75.911233 83.1262866,76.327247 82.93,76.7 C82.7438511,77.039145 82.466806,77.319653 82.13,77.51 C81.7874596,77.709452 81.3962551,77.80985 81,77.8 L81,77.8 Z"/><path id="Shape" fill="#231F20" fill-rule="nonzero" d="M40,63.85 L43.65,63.85 C44.4979238,63.866733 45.3376777,63.681644 46.1,63.31 C46.7864246,62.965696 47.3592303,62.431077 47.75,61.77 C48.537345,60.366195 48.537345,58.653805 47.75,57.25 C47.3577369,56.592619 46.7850744,56.061604 46.1,55.72 C45.3376777,55.348356 44.4979238,55.163267 43.65,55.18 L40,55.18 L40,63.85 L40,63.85 Z M41.24,62.77 L41.24,56.25 L43.58,56.25 C44.2206042,56.236522 44.8550723,56.377133 45.43,56.66 C45.9450641,56.916487 46.375503,57.315684 46.67,57.81 C47.2424764,58.874585 47.2424764,60.155415 46.67,61.22 C46.3776209,61.713554 45.9463406,62.110053 45.43,62.36 C44.8562783,62.646286 44.2209558,62.787087 43.58,62.77 L41.24,62.77 Z M50.06,63.85 L51.25,63.85 L51.25,57.28 L50,57.28 L50,63.85 L50.06,63.85 Z M50.66,56.02 C50.8734718,56.024582 51.0794895,55.941452 51.23,55.79 C51.3841031,55.64542 51.4679966,55.441157 51.46,55.23 C51.468963,55.024476 51.3844024,54.825942 51.23,54.69 C51.0784697,54.541198 50.8722091,54.461589 50.66,54.47 C50.4430875,54.462634 50.2329143,54.545979 50.08,54.7 C49.9316275,54.844358 49.8485617,55.042994 49.85,55.25 C49.8473804,55.457237 49.9306334,55.656321 50.08,55.8 C50.2370663,55.946453 50.4453174,56.025445 50.66,56.02 L50.66,56.02 Z M55.4,63.93 C56.1309706,63.967677 56.8561921,63.782885 57.48,63.4 C57.9643158,63.092225 58.2525416,62.553698 58.24,61.98 C58.2516873,61.61475 58.1269094,61.258241 57.89,60.98 C57.6618323,60.736916 57.3765167,60.554726 57.06,60.45 C56.6363577,60.326956 56.2055431,60.230106 55.77,60.16 C55.38,60.09 55.07,60.02 54.85,59.96 C54.6499421,59.909073 54.4626496,59.817129 54.3,59.69 C54.1490354,59.565183 54.067195,59.375462 54.08,59.18 C54.0807342,58.908144 54.2304726,58.65858 54.47,58.53 C54.8259293,58.34051 55.227616,58.25394 55.63,58.28 C56.2974613,58.263432 56.9549537,58.444329 57.52,58.8 L58.03,57.86 C57.6982122,57.651867 57.332774,57.502985 56.95,57.42 C56.5216289,57.312705 56.0816027,57.258961 55.64,57.26 C54.9329502,57.223477 54.2325839,57.412576 53.64,57.8 C53.1689274,58.122227 52.890983,58.659335 52.9,59.23 C52.8766153,59.622904 53.0055496,60.009707 53.26,60.31 C53.4926885,60.564304 53.7898586,60.750899 54.12,60.85 C54.5414247,60.981487 54.9728476,61.078474 55.41,61.14 L56.31,61.32 C56.50263,61.364132 56.6834322,61.449416 56.84,61.57 C56.9782595,61.686258 57.0556417,61.859446 57.05,62.04 C57.05,62.64 56.53,62.94 55.49,62.94 C55.0664248,62.936348 54.6455298,62.872372 54.24,62.75 C53.8601031,62.64672 53.5013127,62.477479 53.18,62.25 L52.69,63.2 C53.0403679,63.451731 53.4333519,63.63806 53.85,63.75 C54.3542207,63.893655 54.8757197,63.967674 55.4,63.97 L55.4,63.93 Z M62.59,63.93 C63.1420968,63.936823 63.6876376,63.809873 64.18,63.56 C64.6334836,63.340692 65.0125201,62.992952 65.27,62.56 L64.36,61.99 C64.1732823,62.292786 63.9069071,62.538405 63.59,62.7 C63.2805294,62.857396 62.9371381,62.936376 62.59,62.93 C62.185633,62.938485 61.7859706,62.842015 61.43,62.65 C61.0901541,62.46028 60.8097199,62.179846 60.62,61.84 C60.422486,61.464113 60.3227561,61.044559 60.33,60.62 C60.3227112,60.198624 60.4224932,59.782293 60.62,59.41 C60.8097199,59.070154 61.0901541,58.78972 61.43,58.6 C61.7851954,58.404935 62.184797,58.305035 62.59,58.31 C62.937979,58.306713 63.2814166,58.389138 63.59,58.55 C63.9065082,58.707568 64.1730691,58.949897 64.36,59.25 L65.27,58.67 C65.0111523,58.238162 64.6324917,57.890766 64.18,57.67 C63.6867674,57.423587 63.1412705,57.300079 62.59,57.31 C61.966248,57.296688 61.349643,57.444811 60.8,57.74 C60.2831523,58.008824 59.8557582,58.422319 59.57,58.93 C58.969914,60.005276 58.969914,61.314724 59.57,62.39 C59.8614872,62.893231 60.2874104,63.305303 60.8,63.58 C61.3487045,63.878664 61.9653625,64.030245 62.59,64.02 L62.59,63.93 Z M69.52,63.93 C70.1316017,63.937422 70.7346375,63.785802 71.27,63.49 C71.7746056,63.211501 72.1931297,62.799894 72.48,62.3 C73.0668554,61.22132 73.0668554,59.91868 72.48,58.84 C72.1996105,58.33514 71.7794631,57.921937 71.27,57.65 C70.1700885,57.077275 68.8599115,57.077275 67.76,57.65 C67.2468448,57.920386 66.8230759,58.333734 66.54,58.84 C65.9531446,59.91868 65.9531446,61.22132 66.54,62.3 C66.8304149,62.800596 67.2523304,63.212136 67.76,63.49 C68.2984875,63.787055 68.9050733,63.938702 69.52,63.93 L69.52,63.93 Z M69.52,62.93 C69.1207217,62.938599 68.7266339,62.838348 68.38,62.64 C68.0427784,62.448984 67.7683205,62.164104 67.59,61.82 C67.2035805,61.063136 67.2035805,60.166864 67.59,59.41 C67.7721331,59.071236 68.0458948,58.790544 68.38,58.6 C68.7284385,58.406152 69.1212867,58.306216 69.52,58.31 C69.9156694,58.305162 70.3055595,58.405222 70.65,58.6 C70.9858095,58.788331 71.2601216,59.069588 71.44,59.41 C71.8137755,60.169856 71.8137755,61.060144 71.44,61.82 C71.2616795,62.164104 70.9872216,62.448984 70.65,62.64 C70.3074596,62.839452 69.9162551,62.93985 69.52,62.93 L69.52,62.93 Z M79.03,57.33 L76.73,62.6 L74.47,57.33 L73.2,57.33 L76.08,63.9 L77.29,63.9 L80.17,57.33 L79.03,57.33 Z M87.03,60.65 C87.0438837,60.038151 86.9028467,59.432724 86.62,58.89 C86.3558173,58.39336 85.9573211,57.981003 85.47,57.7 C84.4196528,57.12733 83.1503472,57.12733 82.1,57.7 C81.6016104,57.976521 81.192305,58.389295 80.92,58.89 C80.3404289,59.970522 80.3404289,61.269478 80.92,62.35 C81.213245,62.861379 81.6470827,63.277863 82.17,63.55 C82.7388126,63.841995 83.3706915,63.989662 84.01,63.98 C84.5169337,63.984761 85.0198403,63.889616 85.49,63.7 C85.9210273,63.535096 86.3030099,63.263235 86.6,62.91 L85.95,62.14 C85.463303,62.669421 84.7685825,62.958278 84.05,62.93 C83.4660457,62.949715 82.8933871,62.765898 82.43,62.41 C81.9991809,62.064128 81.7253482,61.559699 81.67,61.01 L87,61.01 C87.0086861,60.890157 87.0086861,60.769843 87,60.65 L87.03,60.65 Z M83.79,58.28 C84.316561,58.258156 84.8304626,58.445029 85.22,58.8 C85.6056803,59.153497 85.8447573,59.638787 85.89,60.16 L81.68,60.16 C81.7283002,59.634629 81.9707595,59.146145 82.36,58.79 C82.7548705,58.445023 83.2659445,58.262752 83.79,58.28 L83.79,58.28 Z M89.79,58.44 L89.79,57.33 L88.65,57.33 L88.65,63.9 L89.84,63.9 L89.84,60.63 C89.8029512,60.032593 90.0002529,59.444275 90.39,58.99 C90.7915909,58.590017 91.3440373,58.379215 91.91,58.41 L92.18,58.41 L92.18,57.26 C91.6734345,57.24545 91.1703551,57.348119 90.71,57.56 C90.3172034,57.742708 89.99435,58.048015 89.79,58.43 L89.79,58.44 Z M98.57,57.33 L96.3,62.59 L94,57.28 L92.8,57.28 L95.7,63.84 L95.49,64.3 C95.3780319,64.598529 95.1963142,64.865963 94.96,65.08 C94.7512251,65.240011 94.4927922,65.321435 94.23,65.31 C93.7919432,65.310643 93.3713896,65.138108 93.06,64.83 L92.55,65.72 C92.7611454,65.926877 93.0180988,66.081049 93.3,66.17 C93.5980963,66.277921 93.9129766,66.332094 94.23,66.33 C94.7154261,66.341638 95.1918905,66.197998 95.59,65.92 C96.0437753,65.548208 96.3891776,65.061191 96.59,64.51 L99.77,57.28 L98.57,57.33 Z"/></g></g></svg>