<svg xmlns="http://www.w3.org/2000/svg" xmlns:svg="http://www.w3.org/2000/svg" id="Breadcrumb_Loop" width="838.21" height="468.549" data-name="Breadcrumb Loop" version="1.1" viewBox="0 0 838.21 468.549"><metadata id="metadata3825"/><defs id="defs3810"><style id="style3805">.cls-1{fill:none}.cls-2{clip-path:url(#clip-path)}.cls-3{fill:#3973b8;stroke:#3973b8;stroke-width:9.68px}.cls-3,.cls-4,.cls-5{stroke-miterlimit:10}.cls-4{fill:#eb6608;stroke:#eb6608;stroke-width:8.15px}.cls-5{fill:#aeca37;stroke:#aeca37;stroke-width:9.82px}</style><clipPath id="clip-path"><path style="fill:none" id="path3807" d="m 659.15,2.21 c -94.67,0 -168.1,60.76 -236.76,128.7 -14.63,-14.46 -29.47,-28.6 -44.69,-41.89 a 0.59,0.59 0 0 0 -0.08,-0.52 l 12.15,-7.56 c 2.47,-1.54 2.18,-5.18 -0.46,-5.7 L 317.68,61.14 A 3.46,3.46 0 0 0 314,65.73 l 28.43,67.21 c 1.05,2.47 4.68,2 5.68,-0.72 l 5.88,-16 c 0.1,0.09 0.28,0.08 0.51,0 2.76,2.39 6,5.23 9,7.86 2.27,2.06 4.55,4.14 6.81,6.24 0.11,0.1 0.23,0.21 0.32,0.31 v 0 c 9,8.34 17.89,16.95 26.72,25.68 l -9.8,10 c -67.18,68.5 -130.63,133.2 -201.74,133.2 -86.09,0 -146.22,-53.9 -146.22,-131 0,-72.27 75,-131 167.23,-131 18.2,0 40.81,4.68 65.12,15.72 3.63,1.64 10,5.17 20.93,3 6.34,-2.29 8.59,-7.11 9.74,-11.34 2.35,-8.69 -4.19,-17.84 -8.26,-19.65 C 264.45,10.08 234.48,2.21 206.74,2.21 94.56,2.21 3.3,76.76 3.3,168.39 c 0,97.83 75,166.16 182.43,166.16 86.66,0 155.33,-70 228,-144.14 2.88,-2.95 5.78,-5.9 8.67,-8.84 q 4.35,4.41 8.68,8.84 c 72.7,74.13 141.37,144.14 228,144.14 v 0 h 0.13 0.05 c 107.31,-1 182.25,-69.33 182.25,-166.16 C 841.57,70.54 766.56,2.21 659.15,2.21 Z M 767,260.54 c -26.44,25 -63.8,38.47 -107.94,38.9 h -0.19 c -0.53,0 -2.47,-0.05 -5.1,-0.13 a 131.27,131.27 0 0 1 -37.76,-7.58 c -22.49,-10.81 -36.15,-28.88 -44,-43.67 -9.14,-17.07 -15.15,-38.19 -16.93,-59.45 v -4.71 l 15.92,5.24 c 2.76,0.91 5.37,-1.64 4.09,-4 l -35,-64 a 3.45,3.45 0 0 0 -5.91,0.07 l -33.45,64.9 c -1.23,2.39 1.44,4.88 4.18,3.89 l 13.47,-4.82 c 0,0.18 0.21,0.34 0.55,0.48 v 4.71 a 200.76,200.76 0 0 0 8.6,44.19 C 504.3,214.04 481.11,190.39 457.45,166.27 q -4.92,-5 -9.85,-10 C 511.11,93.3 578.29,37.34 659.15,37.34 c 86.08,0 146.21,53.89 146.21,131 0,36.09 -13.61,68.81 -38.36,92.2 z" class="cls-1"/></clipPath></defs><title id="title3812">LoopArtboard 1</title><g id="g3820" class="cls-2" clip-path="url(#clip-path)" transform="translate(-3.3,-2.21)"><polygon style="fill:#3973b8;stroke:#3973b8;stroke-width:9.68000031px;stroke-miterlimit:10" id="polygon3814" points="-89.44 461.56 -147.2 461.56 -147.2 -241.68 -89.44 -241.68 266.47 -241.68 266.47 461.56" class="cls-3"/><rect style="fill:#eb6608;stroke:#eb6608;stroke-width:8.14999962px;stroke-miterlimit:10" id="rect3816" width="297.36" height="703.24" x="281.06" y="-241.5" class="cls-4"/><polygon style="fill:#aeca37;stroke:#aeca37;stroke-width:9.81999969px;stroke-miterlimit:10" id="polygon3818" points="593 461.43 593 -241.59 947.19 -241.37 1006.67 -241.68 1006.67 461.74 947.19 461.65" class="cls-5"/><text id="text835" x="-7.858" y="-68.53" xml:space="preserve" style="font-style:normal;font-variant:normal;font-weight:700;font-stretch:normal;font-size:40px;line-height:1.25;font-family:Montserrat;-inkscape-font-specification:'Montserrat Bold';letter-spacing:0;word-spacing:0;fill:#3973b8;fill-opacity:1;stroke:none"><tspan id="tspan833" x="-7.858" y="-68.53">foo</tspan></text></g><rect id="rect4659" width="837" height="35" x="-838" y="-422.34" rx="17.966" ry="17.5" transform="scale(-1)" style="fill:#a54ccf;fill-opacity:1;stroke:none;stroke-width:12.52268887;stroke-linecap:round;stroke-linejoin:round;stroke-miterlimit:4.5;stroke-dasharray:none;stroke-opacity:1;paint-order:normal"/><g id="text839" aria-label="Options Pivot" style="font-style:normal;font-variant:normal;font-weight:700;font-stretch:normal;font-size:40px;line-height:1;font-family:Montserrat;-inkscape-font-specification:'Montserrat Bold';letter-spacing:0;word-spacing:0;fill:#eb6608;fill-opacity:1;stroke:none"><path id="path4675" d="m 375.8657,282.17255 q 0,4.01041 -1.58593,7.05468 -1.58594,3.04427 -4.53907,4.66667 -2.95312,1.60417 -6.89062,1.60417 -6.05208,0 -9.4974,-3.55469 -3.42708,-3.57292 -3.42708,-9.77083 0,-6.17969 3.42708,-9.64323 3.42709,-3.46354 9.53386,-3.46354 6.10677,0 9.53385,3.5 3.44531,3.5 3.44531,9.60677 z m -5.48698,0 q 0,-4.15625 -1.96875,-6.50782 -1.96875,-2.36979 -5.52343,-2.36979 -3.60938,0 -5.57813,2.35157 -1.96875,2.33333 -1.96875,6.52604 0,4.22916 2.00521,6.67187 2.02344,2.42448 5.50521,2.42448 3.60937,0 5.55989,-2.36979 1.96875,-2.36979 1.96875,-6.72656 z" style="font-size:37.33333206px;line-height:1;text-align:center;text-anchor:middle;fill:#eb6608;fill-opacity:1"/><path id="path4677" d="m 398.68862,285.18036 q 0,4.9401 -1.98698,7.63802 -1.96875,2.67969 -5.57812,2.67969 -2.07813,0 -3.62761,-0.89323 -1.53125,-0.91146 -2.35156,-2.60677 h -0.10938 q 0.10938,0.54687 0.10938,3.31771 v 7.5651 h -5.1224 v -22.93229 q 0,-2.78906 -0.14583,-4.53906 h 4.97656 q 0.0911,0.32812 0.14584,1.29427 0.0729,0.96614 0.0729,1.91406 h 0.0729 q 1.73177,-3.6276 6.30729,-3.6276 3.44531,0 5.34115,2.66145 1.89583,2.64323 1.89583,7.52865 z m -5.34115,0 q 0,-6.63542 -4.0651,-6.63542 -2.04167,0 -3.13542,1.78646 -1.07552,1.78646 -1.07552,4.99479 0,3.19011 1.07552,4.94011 1.09375,1.73177 3.09896,1.73177 4.10156,0 4.10156,-6.81771 z" style="font-size:37.33333206px;line-height:1;text-align:center;text-anchor:middle;fill:#eb6608;fill-opacity:1"/><path id="path4679" d="m 407.89435,295.46161 q -2.26042,0 -3.48177,-1.22136 -1.22135,-1.23958 -1.22135,-3.73697 v -11.63021 h -2.4974 v -3.46354 h 2.7526 l 1.60417,-4.63021 h 3.20833 v 4.63021 h 3.73698 v 3.46354 h -3.73698 v 10.24479 q 0,1.4401 0.54688,2.13281 0.54687,0.67448 1.69531,0.67448 0.60156,0 1.71354,-0.25521 v 3.17188 q -1.89583,0.61979 -4.32031,0.61979 z" style="font-size:37.33333206px;line-height:1;text-align:center;text-anchor:middle;fill:#eb6608;fill-opacity:1"/><path id="path4681" d="m 415.31362,271.85484 v -3.77344 h 5.1224 v 3.77344 z m 0,23.27864 v -19.72395 h 5.1224 v 19.72395 z" style="font-size:37.33333206px;line-height:1;text-align:center;text-anchor:middle;fill:#eb6608;fill-opacity:1"/><path id="path4683" d="m 444.40737,285.25328 q 0,4.79427 -2.66146,7.52864 -2.66146,2.71615 -7.36458,2.71615 -4.61198,0 -7.23698,-2.73438 -2.625,-2.73437 -2.625,-7.51041 0,-4.75782 2.625,-7.47396 2.625,-2.73438 7.34635,-2.73438 4.83073,0 7.36458,2.64323 2.55209,2.625 2.55209,7.56511 z m -5.35938,0 q 0,-3.51823 -1.14843,-5.10417 -1.14844,-1.58594 -3.33594,-1.58594 -4.66667,0 -4.66667,6.69011 0,3.29947 1.13021,5.03125 1.14844,1.71354 3.29948,1.71354 4.72135,0 4.72135,-6.74479 z" style="font-size:37.33333206px;line-height:1;text-align:center;text-anchor:middle;fill:#eb6608;fill-opacity:1"/><path id="path4685" d="m 461.26934,295.13348 v -11.0651 q 0,-5.19531 -3.51822,-5.19531 -1.85938,0 -3.00782,1.60416 -1.1302,1.58594 -1.1302,4.08334 v 10.57291 h -5.1224 v -15.3125 q 0,-1.58593 -0.0547,-2.58854 -0.0365,-1.02083 -0.0911,-1.82291 h 4.88541 q 0.0547,0.34635 0.14584,1.85937 0.0911,1.49479 0.0911,2.0599 h 0.0729 q 1.03906,-2.26042 2.60677,-3.28125 1.56771,-1.02084 3.73698,-1.02084 3.13541,0 4.8125,1.9323 1.67708,1.93229 1.67708,5.65104 v 12.52343 z" style="font-size:37.33333206px;line-height:1;text-align:center;text-anchor:middle;fill:#eb6608;fill-opacity:1"/><path id="path4687" d="m 487.93862,289.37307 q 0,2.86198 -2.35156,4.5026 -2.33333,1.6224 -6.47136,1.6224 -4.0651,0 -6.23437,-1.27604 -2.15104,-1.29428 -2.86198,-4.01042 l 4.5026,-0.67448 q 0.38282,1.40365 1.3125,1.98698 0.94792,0.58333 3.28125,0.58333 2.15105,0 3.13542,-0.54687 0.98438,-0.54688 0.98438,-1.71354 0,-0.94792 -0.80209,-1.4948 -0.78385,-0.5651 -2.67968,-0.94791 -4.33855,-0.85677 -5.85157,-1.58594 -1.51302,-0.7474 -2.3151,-1.91406 -0.78386,-1.1849 -0.78386,-2.89844 0,-2.82552 2.16928,-4.39323 2.1875,-1.58594 6.17968,-1.58594 3.51823,0 5.65104,1.36719 2.15105,1.36719 2.67969,3.95573 l -4.53906,0.47396 q -0.21875,-1.20313 -1.07552,-1.78646 -0.85677,-0.60156 -2.71615,-0.60156 -1.82291,0 -2.73437,0.47396 -0.91146,0.45573 -0.91146,1.54948 0,0.85677 0.69271,1.36718 0.71094,0.49219 2.36979,0.82032 2.3151,0.47395 4.10156,0.98437 1.80469,0.49219 2.88021,1.1849 1.09375,0.6927 1.73177,1.78645 0.65625,1.07552 0.65625,2.77084 z" style="font-size:37.33333206px;line-height:1;text-align:center;text-anchor:middle;fill:#eb6608;fill-opacity:1"/><path id="path4689" d="m 396.88393,317.5788 q 0,2.47916 -1.13021,4.42968 -1.1302,1.95053 -3.24479,3.02605 -2.09635,1.05729 -4.99479,1.05729 h -6.38021 v 9.04166 h -5.3776 v -25.68489 h 11.53906 q 4.61198,0 7.09115,2.13281 2.49739,2.11458 2.49739,5.9974 z m -5.41406,0.0911 q 0,-4.04687 -4.77604,-4.04687 h -5.5599 v 8.33073 h 5.70573 q 2.22396,0 3.42708,-1.09375 1.20313,-1.11198 1.20313,-3.19011 z" style="font-size:37.33333206px;line-height:1;text-align:center;text-anchor:middle;fill:#eb6608;fill-opacity:1"/><path id="path4691" d="m 400.8032,311.85484 v -3.77344 h 5.1224 v 3.77344 z m 0,23.27864 v -19.72395 h 5.1224 v 19.72395 z" style="font-size:37.33333206px;line-height:1;text-align:center;text-anchor:middle;fill:#eb6608;fill-opacity:1"/><path id="path4693" d="m 421.87612,335.13348 h -6.125 l -7.05469,-19.72395 h 5.41406 l 3.44532,11.02864 q 0.27343,0.91146 1.29427,4.55729 0.18229,-0.74739 0.74739,-2.625 0.56511,-1.8776 4.19271,-12.96093 h 5.35937 z" style="font-size:37.33333206px;line-height:1;text-align:center;text-anchor:middle;fill:#eb6608;fill-opacity:1"/><path id="path4695" d="m 450.6782,325.25328 q 0,4.79427 -2.66146,7.52864 -2.66146,2.71615 -7.36458,2.71615 -4.61198,0 -7.23698,-2.73438 -2.625,-2.73437 -2.625,-7.51041 0,-4.75782 2.625,-7.47396 2.625,-2.73438 7.34635,-2.73438 4.83073,0 7.36459,2.64323 2.55208,2.625 2.55208,7.56511 z m -5.35937,0 q 0,-3.51823 -1.14844,-5.10417 -1.14844,-1.58594 -3.33594,-1.58594 -4.66667,0 -4.66667,6.69011 0,3.29947 1.13021,5.03125 1.14844,1.71354 3.29948,1.71354 4.72136,0 4.72136,-6.74479 z" style="font-size:37.33333206px;line-height:1;text-align:center;text-anchor:middle;fill:#eb6608;fill-opacity:1"/><path id="path4697" d="m 459.81101,335.46161 q -2.26042,0 -3.48177,-1.22136 -1.22135,-1.23958 -1.22135,-3.73697 v -11.63021 h -2.4974 v -3.46354 h 2.7526 l 1.60417,-4.63021 h 3.20833 v 4.63021 h 3.73698 v 3.46354 h -3.73698 v 10.24479 q 0,1.4401 0.54688,2.13281 0.54687,0.67448 1.69531,0.67448 0.60156,0 1.71354,-0.25521 v 3.17188 q -1.89583,0.61979 -4.32031,0.61979 z" style="font-size:37.33333206px;line-height:1;text-align:center;text-anchor:middle;fill:#eb6608;fill-opacity:1"/></g><g id="text839-4" aria-label="Delivery Loop" style="font-style:normal;font-variant:normal;font-weight:700;font-stretch:normal;font-size:40px;line-height:1;font-family:Montserrat;-inkscape-font-specification:'Montserrat Bold';letter-spacing:0;word-spacing:0;fill:#aeca37;fill-opacity:1;stroke:none"><path id="path4650" d="m 643.56393,144.80343 q 0,3.97395 -1.56771,6.94531 -1.54948,2.95312 -4.41146,4.52083 -2.84375,1.56771 -6.52604,1.56771 h -10.39063 v -25.68489 h 9.29688 q 6.48958,0 10.04427,3.28125 3.55469,3.26302 3.55469,9.36979 z m -5.41407,0 q 0,-4.13802 -2.15104,-6.30729 -2.15104,-2.1875 -6.14323,-2.1875 h -3.80989 v 17.37239 h 4.55729 q 3.46354,0 5.50521,-2.38802 2.04166,-2.38802 2.04166,-6.48958 z" style="font-size:37.33333206px;line-height:1;text-align:center;text-anchor:middle;fill:#aeca37;fill-opacity:1"/><path id="path4652" d="m 655.83215,158.20186 q -4.44791,0 -6.83593,-2.625 -2.38802,-2.64323 -2.38802,-7.6927 0,-4.88542 2.42448,-7.51042 2.42447,-2.625 6.87239,-2.625 4.2474,0 6.48958,2.82552 2.24219,2.80729 2.24219,8.23958 v 0.14584 H 651.9858 q 0,2.8802 1.05729,4.35677 1.07552,1.45833 3.04427,1.45833 2.71615,0 3.42709,-2.35156 l 4.83073,0.41927 q -2.09636,5.35937 -8.51303,5.35937 z m 0,-17.22656 q -1.80468,0 -2.78906,1.25781 -0.96614,1.25782 -1.02083,3.51823 h 7.65625 q -0.14583,-2.38802 -1.14844,-3.57291 -1.0026,-1.20313 -2.69792,-1.20313 z" style="font-size:37.33333206px;line-height:1;text-align:center;text-anchor:middle;fill:#aeca37;fill-opacity:1"/><path id="path4654" d="M 668.53788,157.83728 V 130.7852 h 5.1224 v 27.05208 z" style="font-size:37.33333206px;line-height:1;text-align:center;text-anchor:middle;fill:#aeca37;fill-opacity:1"/><path id="path4656" d="m 678.89205,134.55864 v -3.77344 h 5.1224 v 3.77344 z m 0,23.27864 v -19.72396 h 5.1224 v 19.72396 z" style="font-size:37.33333206px;line-height:1;text-align:center;text-anchor:middle;fill:#aeca37;fill-opacity:1"/><path id="path4658" d="m 699.96497,157.83728 h -6.125 l -7.05469,-19.72396 h 5.41406 l 3.44532,11.02865 q 0.27343,0.91146 1.29427,4.55729 0.18229,-0.7474 0.74739,-2.625 0.56511,-1.8776 4.19271,-12.96094 h 5.35938 z" style="font-size:37.33333206px;line-height:1;text-align:center;text-anchor:middle;fill:#aeca37;fill-opacity:1"/><path id="path4660" d="m 718.10299,158.20186 q -4.44792,0 -6.83594,-2.625 -2.38802,-2.64323 -2.38802,-7.6927 0,-4.88542 2.42448,-7.51042 2.42448,-2.625 6.8724,-2.625 4.24739,0 6.48958,2.82552 2.24219,2.80729 2.24219,8.23958 v 0.14584 h -12.65105 q 0,2.8802 1.0573,4.35677 1.07552,1.45833 3.04427,1.45833 2.71614,0 3.42708,-2.35156 l 4.83073,0.41927 q -2.09635,5.35937 -8.51302,5.35937 z m 0,-17.22656 q -1.80469,0 -2.78906,1.25781 -0.96615,1.25782 -1.02084,3.51823 h 7.65625 q -0.14583,-2.38802 -1.14843,-3.57291 -1.00261,-1.20313 -2.69792,-1.20313 z" style="font-size:37.33333206px;line-height:1;text-align:center;text-anchor:middle;fill:#aeca37;fill-opacity:1"/><path id="path4662" d="m 730.80872,157.83728 v -15.09375 q 0,-1.62239 -0.0547,-2.69792 -0.0365,-1.09375 -0.0911,-1.93229 h 4.88542 q 0.0547,0.32813 0.14583,2.00521 0.0911,1.65885 0.0911,2.20573 h 0.0729 q 0.74739,-2.07812 1.33073,-2.91667 0.58333,-0.85677 1.38541,-1.25781 0.80209,-0.41927 2.00521,-0.41927 0.98438,0 1.58594,0.27344 v 4.28385 q -1.23958,-0.27344 -2.1875,-0.27344 -1.91406,0 -2.98958,1.54948 -1.0573,1.54948 -1.0573,4.59375 v 9.67969 z" style="font-size:37.33333206px;line-height:1;text-align:center;text-anchor:middle;fill:#aeca37;fill-opacity:1"/><path id="path4664" d="m 747.87122,165.58468 q -1.84115,0 -3.22657,-0.23698 v -3.64584 q 0.96615,0.14584 1.76823,0.14584 1.09375,0 1.80469,-0.34636 0.72917,-0.34635 1.29427,-1.14843 0.58333,-0.80209 1.29427,-2.71615 l -7.80208,-19.52344 h 5.41406 l 3.09896,9.24219 q 0.72917,1.98698 1.84114,6.08854 l 0.45573,-1.73177 1.1849,-4.28385 2.91667,-9.31511 h 5.35937 l -7.80208,20.76302 q -1.56771,3.79167 -3.26302,5.25 -1.67709,1.45834 -4.33854,1.45834 z" style="font-size:37.33333206px;line-height:1;text-align:center;text-anchor:middle;fill:#aeca37;fill-opacity:1"/><path id="path4666" d="m 647.68372,197.83728 v -25.68489 h 5.3776 v 21.52864 h 13.78125 v 4.15625 z" style="font-size:37.33333206px;line-height:1;text-align:center;text-anchor:middle;fill:#aeca37;fill-opacity:1"/><path id="path4668" d="m 689.35559,187.95707 q 0,4.79427 -2.66146,7.52865 -2.66146,2.71614 -7.36458,2.71614 -4.61198,0 -7.23698,-2.73437 -2.625,-2.73438 -2.625,-7.51042 0,-4.75781 2.625,-7.47396 2.625,-2.73437 7.34635,-2.73437 4.83073,0 7.36459,2.64323 2.55208,2.625 2.55208,7.5651 z m -5.35937,0 q 0,-3.51823 -1.14844,-5.10416 -1.14844,-1.58594 -3.33594,-1.58594 -4.66667,0 -4.66667,6.6901 0,3.29948 1.13021,5.03125 1.14844,1.71354 3.29948,1.71354 4.72136,0 4.72136,-6.74479 z" style="font-size:37.33333206px;line-height:1;text-align:center;text-anchor:middle;fill:#aeca37;fill-opacity:1"/><path id="path4670" d="m 712.17851,187.95707 q 0,4.79427 -2.66146,7.52865 -2.66146,2.71614 -7.36458,2.71614 -4.61198,0 -7.23698,-2.73437 -2.625,-2.73438 -2.625,-7.51042 0,-4.75781 2.625,-7.47396 2.625,-2.73437 7.34635,-2.73437 4.83073,0 7.36458,2.64323 2.55209,2.625 2.55209,7.5651 z m -5.35938,0 q 0,-3.51823 -1.14844,-5.10416 -1.14843,-1.58594 -3.33593,-1.58594 -4.66667,0 -4.66667,6.6901 0,3.29948 1.13021,5.03125 1.14844,1.71354 3.29948,1.71354 4.72135,0 4.72135,-6.74479 z" style="font-size:37.33333206px;line-height:1;text-align:center;text-anchor:middle;fill:#aeca37;fill-opacity:1"/><path id="path4672" d="m 734.92851,187.88416 q 0,4.9401 -1.98698,7.63802 -1.96875,2.67968 -5.57813,2.67968 -2.07812,0 -3.6276,-0.89323 -1.53125,-0.91145 -2.35156,-2.60677 h -0.10938 q 0.10938,0.54688 0.10938,3.31771 v 7.56511 h -5.1224 v -22.9323 q 0,-2.78906 -0.14583,-4.53906 h 4.97656 q 0.0911,0.32813 0.14583,1.29427 0.0729,0.96615 0.0729,1.91407 h 0.0729 q 1.73177,-3.62761 6.30729,-3.62761 3.44531,0 5.34115,2.66146 1.89583,2.64323 1.89583,7.52865 z m -5.34115,0 q 0,-6.63542 -4.0651,-6.63542 -2.04167,0 -3.13542,1.78646 -1.07552,1.78646 -1.07552,4.99479 0,3.1901 1.07552,4.9401 1.09375,1.73177 3.09896,1.73177 4.10156,0 4.10156,-6.8177 z" style="font-size:37.33333206px;line-height:1;text-align:center;text-anchor:middle;fill:#aeca37;fill-opacity:1"/></g><g id="text839-3" aria-label="Discovery Loop" style="font-style:normal;font-variant:normal;font-weight:700;font-stretch:normal;font-size:40px;line-height:1;font-family:Montserrat;-inkscape-font-specification:'Montserrat Bold';letter-spacing:0;word-spacing:0;fill:#3973b8;fill-opacity:1;stroke:none"><path id="path4700" d="m 104.70721,144.80343 q 0,3.97395 -1.56771,6.94531 -1.54948,2.95312 -4.41146,4.52083 -2.84375,1.56771 -6.526042,1.56771 H 81.811374 v -25.68489 h 9.296874 q 6.489584,0 10.044272,3.28125 3.55469,3.26302 3.55469,9.36979 z m -5.414066,0 q 0,-4.13802 -2.151042,-6.30729 -2.151041,-2.1875 -6.143229,-2.1875 h -3.809895 v 17.37239 h 4.557291 q 3.463542,0 5.505208,-2.38802 2.041667,-2.38802 2.041667,-6.48958 z" style="font-size:37.33333206px;line-height:1;text-align:center;text-anchor:middle"/><path id="path4702" d="m 108.89991,134.55864 v -3.77344 h 5.1224 v 3.77344 z m 0,23.27864 v -19.72396 h 5.1224 v 19.72396 z" style="font-size:37.33333206px;line-height:1;text-align:center;text-anchor:middle"/><path id="path4704" d="m 135.87908,152.07686 q 0,2.86198 -2.35156,4.50261 -2.33334,1.62239 -6.47136,1.62239 -4.0651,0 -6.23437,-1.27604 -2.15104,-1.29427 -2.86198,-4.01041 l 4.5026,-0.67448 q 0.38282,1.40364 1.3125,1.98698 0.94792,0.58333 3.28125,0.58333 2.15105,0 3.13542,-0.54688 0.98438,-0.54687 0.98438,-1.71354 0,-0.94791 -0.80209,-1.49479 -0.78385,-0.5651 -2.67969,-0.94792 -4.33854,-0.85677 -5.85156,-1.58593 -1.51302,-0.7474 -2.3151,-1.91407 -0.78386,-1.18489 -0.78386,-2.89843 0,-2.82552 2.16927,-4.39323 2.1875,-1.58594 6.17969,-1.58594 3.51823,0 5.65104,1.36719 2.15105,1.36719 2.67969,3.95573 l -4.53906,0.47395 q -0.21875,-1.20312 -1.07552,-1.78645 -0.85677,-0.60157 -2.71615,-0.60157 -1.82291,0 -2.73437,0.47396 -0.91146,0.45573 -0.91146,1.54948 0,0.85677 0.69271,1.36719 0.71093,0.49219 2.36979,0.82031 2.3151,0.47396 4.10156,0.98438 1.80469,0.49218 2.88021,1.18489 1.09375,0.69271 1.73177,1.78646 0.65625,1.07552 0.65625,2.77083 z" style="font-size:37.33333206px;line-height:1;text-align:center;text-anchor:middle"/><path id="path4706" d="m 148.25668,158.20186 q -4.48437,0 -6.92708,-2.66145 -2.44271,-2.67969 -2.44271,-7.45573 0,-4.88542 2.46094,-7.60157 2.46094,-2.73437 6.98177,-2.73437 3.48177,0 5.76042,1.75 2.27864,1.75 2.86198,4.83073 l -5.15886,0.25521 q -0.21875,-1.51302 -1.09375,-2.40625 -0.875,-0.91146 -2.47916,-0.91146 -3.95573,0 -3.95573,6.61719 0,6.8177 4.02864,6.8177 1.45834,0 2.44271,-0.91145 0.98438,-0.92969 1.22136,-2.75261 l 5.14062,0.23698 q -0.27344,2.02344 -1.45833,3.60938 -1.16667,1.58593 -3.08073,2.46093 -1.91406,0.85677 -4.30209,0.85677 z" style="font-size:37.33333206px;line-height:1;text-align:center;text-anchor:middle"/><path id="path4708" d="m 179.55616,147.95707 q 0,4.79427 -2.66146,7.52865 -2.66146,2.71614 -7.36458,2.71614 -4.61198,0 -7.23698,-2.73437 -2.625,-2.73438 -2.625,-7.51042 0,-4.75781 2.625,-7.47396 2.625,-2.73437 7.34635,-2.73437 4.83073,0 7.36459,2.64323 2.55208,2.625 2.55208,7.5651 z m -5.35938,0 q 0,-3.51823 -1.14843,-5.10416 -1.14844,-1.58594 -3.33594,-1.58594 -4.66667,0 -4.66667,6.6901 0,3.29948 1.13021,5.03125 1.14844,1.71354 3.29948,1.71354 4.72135,0 4.72135,-6.74479 z" style="font-size:37.33333206px;line-height:1;text-align:center;text-anchor:middle"/><path id="path4710" d="m 194.35825,157.83728 h -6.125 l -7.05469,-19.72396 h 5.41406 l 3.44532,11.02865 q 0.27343,0.91146 1.29427,4.55729 0.18229,-0.7474 0.74739,-2.625 0.56511,-1.8776 4.19271,-12.96094 h 5.35938 z" style="font-size:37.33333206px;line-height:1;text-align:center;text-anchor:middle"/><path id="path4712" d="m 212.49627,158.20186 q -4.44792,0 -6.83594,-2.625 -2.38802,-2.64323 -2.38802,-7.6927 0,-4.88542 2.42448,-7.51042 2.42448,-2.625 6.8724,-2.625 4.24739,0 6.48958,2.82552 2.24219,2.80729 2.24219,8.23958 v 0.14584 h -12.65104 q 0,2.8802 1.05729,4.35677 1.07552,1.45833 3.04427,1.45833 2.71614,0 3.42708,-2.35156 l 4.83073,0.41927 q -2.09635,5.35937 -8.51302,5.35937 z m 0,-17.22656 q -1.80469,0 -2.78906,1.25781 -0.96615,1.25782 -1.02084,3.51823 h 7.65625 q -0.14583,-2.38802 -1.14843,-3.57291 -1.00261,-1.20313 -2.69792,-1.20313 z" style="font-size:37.33333206px;line-height:1;text-align:center;text-anchor:middle"/><path id="path4714" d="m 225.202,157.83728 v -15.09375 q 0,-1.62239 -0.0547,-2.69792 -0.0365,-1.09375 -0.0911,-1.93229 h 4.88541 q 0.0547,0.32813 0.14584,2.00521 0.0911,1.65885 0.0911,2.20573 h 0.0729 q 0.74739,-2.07812 1.33073,-2.91667 0.58333,-0.85677 1.38541,-1.25781 0.80209,-0.41927 2.00521,-0.41927 0.98438,0 1.58594,0.27344 v 4.28385 q -1.23958,-0.27344 -2.1875,-0.27344 -1.91406,0 -2.98958,1.54948 -1.0573,1.54948 -1.0573,4.59375 v 9.67969 z" style="font-size:37.33333206px;line-height:1;text-align:center;text-anchor:middle"/><path id="path4716" d="m 242.26449,165.58468 q -1.84115,0 -3.22656,-0.23698 v -3.64584 q 0.96614,0.14584 1.76823,0.14584 1.09375,0 1.80468,-0.34636 0.72917,-0.34635 1.29427,-1.14843 0.58334,-0.80209 1.29427,-2.71615 l -7.80208,-19.52344 h 5.41406 l 3.09896,9.24219 q 0.72917,1.98698 1.84115,6.08854 l 0.45573,-1.73177 1.18489,-4.28385 2.91667,-9.31511 h 5.35937 l -7.80208,20.76302 q -1.56771,3.79167 -3.26302,5.25 -1.67708,1.45834 -4.33854,1.45834 z" style="font-size:37.33333206px;line-height:1;text-align:center;text-anchor:middle"/><path id="path4718" d="m 125.452,197.83728 v -25.68489 h 5.3776 v 21.52864 h 13.78125 v 4.15625 z" style="font-size:37.33333206px;line-height:1;text-align:center;text-anchor:middle"/><path id="path4720" d="m 167.12387,187.95707 q 0,4.79427 -2.66146,7.52865 -2.66146,2.71614 -7.36458,2.71614 -4.61198,0 -7.23698,-2.73437 -2.625,-2.73438 -2.625,-7.51042 0,-4.75781 2.625,-7.47396 2.625,-2.73437 7.34635,-2.73437 4.83073,0 7.36459,2.64323 2.55208,2.625 2.55208,7.5651 z m -5.35937,0 q 0,-3.51823 -1.14844,-5.10416 -1.14844,-1.58594 -3.33594,-1.58594 -4.66667,0 -4.66667,6.6901 0,3.29948 1.13021,5.03125 1.14844,1.71354 3.29948,1.71354 4.72136,0 4.72136,-6.74479 z" style="font-size:37.33333206px;line-height:1;text-align:center;text-anchor:middle"/><path id="path4722" d="m 189.94679,187.95707 q 0,4.79427 -2.66146,7.52865 -2.66146,2.71614 -7.36458,2.71614 -4.61198,0 -7.23698,-2.73437 -2.625,-2.73438 -2.625,-7.51042 0,-4.75781 2.625,-7.47396 2.625,-2.73437 7.34635,-2.73437 4.83073,0 7.36458,2.64323 2.55209,2.625 2.55209,7.5651 z m -5.35938,0 q 0,-3.51823 -1.14844,-5.10416 -1.14843,-1.58594 -3.33593,-1.58594 -4.66667,0 -4.66667,6.6901 0,3.29948 1.13021,5.03125 1.14844,1.71354 3.29948,1.71354 4.72135,0 4.72135,-6.74479 z" style="font-size:37.33333206px;line-height:1;text-align:center;text-anchor:middle"/><path id="path4724" d="m 212.69679,187.88416 q 0,4.9401 -1.98698,7.63802 -1.96875,2.67968 -5.57813,2.67968 -2.07812,0 -3.6276,-0.89323 -1.53125,-0.91145 -2.35156,-2.60677 h -0.10938 q 0.10938,0.54688 0.10938,3.31771 v 7.56511 h -5.1224 v -22.9323 q 0,-2.78906 -0.14583,-4.53906 h 4.97656 q 0.0911,0.32813 0.14583,1.29427 0.0729,0.96615 0.0729,1.91407 h 0.0729 q 1.73177,-3.62761 6.30729,-3.62761 3.44531,0 5.34115,2.66146 1.89583,2.64323 1.89583,7.52865 z m -5.34115,0 q 0,-6.63542 -4.0651,-6.63542 -2.04167,0 -3.13542,1.78646 -1.07552,1.78646 -1.07552,4.99479 0,3.1901 1.07552,4.9401 1.09375,1.73177 3.09896,1.73177 4.10156,0 4.10156,-6.8177 z" style="font-size:37.33333206px;line-height:1;text-align:center;text-anchor:middle"/></g><g id="text839-0" aria-label="Foundation" style="font-style:normal;font-variant:normal;font-weight:700;font-stretch:normal;font-size:40px;line-height:1;font-family:Montserrat;-inkscape-font-specification:'Montserrat Bold';letter-spacing:0;word-spacing:0;fill:#a54ccf;fill-opacity:1;stroke:none"><path id="path4727" d="m 325.61068,446.65531 v 7.94792 h 13.14323 v 4.15625 h -13.14323 v 9.42448 h -5.3776 v -25.68489 h 18.9401 v 4.15624 z" style="font-size:37.33333206px;line-height:1;text-align:center;text-anchor:middle;fill:#a54ccf;fill-opacity:1"/><path id="path4729" d="m 361.90495,458.30375 q 0,4.79427 -2.66146,7.52865 -2.66146,2.71614 -7.36458,2.71614 -4.61198,0 -7.23698,-2.73437 -2.625,-2.73438 -2.625,-7.51042 0,-4.75781 2.625,-7.47396 2.625,-2.73437 7.34635,-2.73437 4.83073,0 7.36459,2.64323 2.55208,2.625 2.55208,7.5651 z m -5.35937,0 q 0,-3.51823 -1.14844,-5.10416 -1.14844,-1.58594 -3.33594,-1.58594 -4.66667,0 -4.66667,6.6901 0,3.29948 1.13021,5.03125 1.14844,1.71354 3.29948,1.71354 4.72136,0 4.72136,-6.74479 z" style="font-size:37.33333206px;line-height:1;text-align:center;text-anchor:middle;fill:#a54ccf;fill-opacity:1"/><path id="path4731" d="m 370.81901,448.46 v 11.06511 q 0,5.19531 3.5,5.19531 1.85938,0 2.98959,-1.58594 1.14843,-1.60417 1.14843,-4.10156 V 448.46 h 5.1224 v 15.3125 q 0,2.51563 0.14583,4.41146 h -4.88541 q -0.21875,-2.625 -0.21875,-3.91927 h -0.0912 q -1.02083,2.24219 -2.60677,3.26302 -1.56771,1.02083 -3.73698,1.02083 -3.13542,0 -4.8125,-1.91406 -1.67708,-1.93229 -1.67708,-5.65104 V 448.46 Z" style="font-size:37.33333206px;line-height:1;text-align:center;text-anchor:middle;fill:#a54ccf;fill-opacity:1"/><path id="path4733" d="m 401.58985,468.18396 v -11.0651 q 0,-5.19532 -3.51823,-5.19532 -1.85938,0 -3.00781,1.60417 -1.13021,1.58594 -1.13021,4.08333 v 10.57292 h -5.1224 v -15.3125 q 0,-1.58594 -0.0547,-2.58854 -0.0365,-1.02083 -0.0911,-1.82292 h 4.88541 q 0.0547,0.34636 0.14584,1.85938 0.0911,1.49479 0.0911,2.05989 h 0.0729 q 1.03906,-2.26041 2.60677,-3.28125 1.56771,-1.02083 3.73698,-1.02083 3.13542,0 4.8125,1.93229 1.67708,1.93229 1.67708,5.65104 v 12.52344 z" style="font-size:37.33333206px;line-height:1;text-align:center;text-anchor:middle;fill:#a54ccf;fill-opacity:1"/><path id="path4735" d="m 424.41276,468.18396 q -0.0729,-0.27344 -0.18229,-1.36719 -0.0912,-1.11198 -0.0912,-1.84114 h -0.0729 q -1.65886,3.57291 -6.30729,3.57291 -3.44532,0 -5.32292,-2.67968 -1.87761,-2.69792 -1.87761,-7.52865 0,-4.90365 1.96875,-7.5651 1.98698,-2.67969 5.61459,-2.67969 2.09635,0 3.60937,0.875 1.53125,0.875 2.35156,2.60677 h 0.0365 l -0.0365,-3.24479 v -7.20052 h 5.1224 v 22.75 q 0,1.82291 0.14583,4.30208 z m -0.23698,-9.97135 q 0,-3.19011 -1.07552,-4.90365 -1.05729,-1.73177 -3.13542,-1.73177 -2.05989,0 -3.0625,1.67708 -1.0026,1.65886 -1.0026,5.08594 0,6.70833 4.02865,6.70833 2.02343,0 3.13541,-1.76823 1.11198,-1.78645 1.11198,-5.0677 z" style="font-size:37.33333206px;line-height:1;text-align:center;text-anchor:middle;fill:#a54ccf;fill-opacity:1"/><path id="path4737" d="m 439.01432,468.54854 q -2.86198,0 -4.46614,-1.54948 -1.60417,-1.5677 -1.60417,-4.39322 0,-3.0625 1.98698,-4.66667 2.00521,-1.60417 5.79687,-1.64063 l 4.2474,-0.0729 v -1.00261 q 0,-1.93229 -0.67448,-2.86198 -0.67448,-0.94791 -2.20573,-0.94791 -1.42187,0 -2.09635,0.65625 -0.65625,0.63802 -0.82032,2.13281 l -5.34114,-0.25521 q 0.49219,-2.88021 2.625,-4.35677 2.15104,-1.49479 5.85156,-1.49479 3.73698,0 5.76042,1.84114 2.02343,1.84115 2.02343,5.23178 v 7.18229 q 0,1.65885 0.36459,2.29687 0.38281,0.61979 1.25781,0.61979 0.58333,0 1.13021,-0.10937 v 2.77083 q -0.45573,0.10938 -0.82031,0.20052 -0.36459,0.0911 -0.72917,0.14584 -0.36458,0.0547 -0.78386,0.0911 -0.40104,0.0365 -0.94791,0.0365 -1.93229,0 -2.86198,-0.94792 -0.91146,-0.94791 -1.09375,-2.78906 h -0.10938 q -2.15104,3.88281 -6.48958,3.88281 z m 5.96094,-9.49739 -2.625,0.0365 q -1.78646,0.0729 -2.53386,0.40104 -0.74739,0.30989 -1.14843,0.96614 -0.38282,0.65625 -0.38282,1.75 0,1.40365 0.63803,2.09636 0.65625,0.67448 1.73177,0.67448 1.20312,0 2.1875,-0.65625 1.0026,-0.65625 1.5677,-1.80469 0.56511,-1.16667 0.56511,-2.46094 z" style="font-size:37.33333206px;line-height:1;text-align:center;text-anchor:middle;fill:#a54ccf;fill-opacity:1"/><path id="path4739" d="m 460.28776,468.51208 q -2.26042,0 -3.48177,-1.22135 -1.22136,-1.23958 -1.22136,-3.73698 v -11.63021 h -2.49739 V 448.46 h 2.7526 l 1.60417,-4.63021 h 3.20833 V 448.46 h 3.73698 v 3.46354 h -3.73698 v 10.2448 q 0,1.4401 0.54688,2.13281 0.54687,0.67448 1.69531,0.67448 0.60156,0 1.71354,-0.25521 v 3.17187 q -1.89583,0.61979 -4.32031,0.61979 z" style="font-size:37.33333206px;line-height:1;text-align:center;text-anchor:middle;fill:#a54ccf;fill-opacity:1"/><path id="path4741" d="m 467.70703,444.90531 v -3.77343 h 5.1224 v 3.77343 z m 0,23.27865 V 448.46 h 5.1224 v 19.72396 z" style="font-size:37.33333206px;line-height:1;text-align:center;text-anchor:middle;fill:#a54ccf;fill-opacity:1"/><path id="path4743" d="m 496.80078,458.30375 q 0,4.79427 -2.66145,7.52865 -2.66146,2.71614 -7.36459,2.71614 -4.61198,0 -7.23698,-2.73437 -2.625,-2.73438 -2.625,-7.51042 0,-4.75781 2.625,-7.47396 2.625,-2.73437 7.34636,-2.73437 4.83073,0 7.36458,2.64323 2.55208,2.625 2.55208,7.5651 z m -5.35937,0 q 0,-3.51823 -1.14844,-5.10416 -1.14844,-1.58594 -3.33594,-1.58594 -4.66666,0 -4.66666,6.6901 0,3.29948 1.13021,5.03125 1.14843,1.71354 3.29948,1.71354 4.72135,0 4.72135,-6.74479 z" style="font-size:37.33333206px;line-height:1;text-align:center;text-anchor:middle;fill:#a54ccf;fill-opacity:1"/><path id="path4745" d="m 513.66275,468.18396 v -11.0651 q 0,-5.19532 -3.51823,-5.19532 -1.85937,0 -3.00781,1.60417 -1.13021,1.58594 -1.13021,4.08333 v 10.57292 h -5.12239 v -15.3125 q 0,-1.58594 -0.0547,-2.58854 -0.0365,-1.02083 -0.0912,-1.82292 h 4.88542 q 0.0547,0.34636 0.14583,1.85938 0.0912,1.49479 0.0912,2.05989 h 0.0729 q 1.03906,-2.26041 2.60677,-3.28125 1.56771,-1.02083 3.73698,-1.02083 3.13541,0 4.8125,1.93229 1.67708,1.93229 1.67708,5.65104 v 12.52344 z" style="font-size:37.33333206px;line-height:1;text-align:center;text-anchor:middle;fill:#a54ccf;fill-opacity:1"/></g></svg>