<svg xmlns="http://www.w3.org/2000/svg" xmlns:svg="http://www.w3.org/2000/svg" id="Breadcrumb_Loop" width="838.21" height="402.34" data-name="Breadcrumb Loop" version="1.1" viewBox="0 0 838.21 402.34" style="zoom:1"><metadata id="metadata3825"/><defs id="defs3810"><style id="style3805">.cls-1{fill:none}.cls-2{clip-path:url(#clip-path)}.cls-3{fill:#3973b8;stroke:#3973b8;stroke-width:9.68px}.cls-3,.cls-4,.cls-5{stroke-miterlimit:10}.cls-4{fill:#eb6608;stroke:#eb6608;stroke-width:8.15px}.cls-5{fill:#aeca37;stroke:#aeca37;stroke-width:9.82px}</style><clipPath id="clip-path"><path id="path3807" d="m 659.15,2.21 c -94.67,0 -168.1,60.76 -236.76,128.7 -14.63,-14.46 -29.47,-28.6 -44.69,-41.89 a 0.59,0.59 0 0 0 -0.08,-0.52 l 12.15,-7.56 c 2.47,-1.54 2.18,-5.18 -0.46,-5.7 L 317.68,61.14 A 3.46,3.46 0 0 0 314,65.73 l 28.43,67.21 c 1.05,2.47 4.68,2 5.68,-0.72 l 5.88,-16 c 0.1,0.09 0.28,0.08 0.51,0 2.76,2.39 6,5.23 9,7.86 2.27,2.06 4.55,4.14 6.81,6.24 0.11,0.1 0.23,0.21 0.32,0.31 v 0 c 9,8.34 17.89,16.95 26.72,25.68 l -9.8,10 c -67.18,68.5 -130.63,133.2 -201.74,133.2 -86.09,0 -146.22,-53.9 -146.22,-131 0,-72.27 75,-131 167.23,-131 18.2,0 40.81,4.68 65.12,15.72 3.63,1.64 10,5.17 20.93,3 6.34,-2.29 8.59,-7.11 9.74,-11.34 2.35,-8.69 -4.19,-17.84 -8.26,-19.65 C 264.45,10.08 234.48,2.21 206.74,2.21 94.56,2.21 3.3,76.76 3.3,168.39 c 0,97.83 75,166.16 182.43,166.16 86.66,0 155.33,-70 228,-144.14 2.88,-2.95 5.78,-5.9 8.67,-8.84 q 4.35,4.41 8.68,8.84 c 72.7,74.13 141.37,144.14 228,144.14 v 0 h 0.13 0.05 c 107.31,-1 182.25,-69.33 182.25,-166.16 C 841.57,70.54 766.56,2.21 659.15,2.21 Z M 767,260.54 c -26.44,25 -63.8,38.47 -107.94,38.9 h -0.19 c -0.53,0 -2.47,-0.05 -5.1,-0.13 a 131.27,131.27 0 0 1 -37.76,-7.58 c -22.49,-10.81 -36.15,-28.88 -44,-43.67 -9.14,-17.07 -15.15,-38.19 -16.93,-59.45 v -4.71 l 15.92,5.24 c 2.76,0.91 5.37,-1.64 4.09,-4 l -35,-64 a 3.45,3.45 0 0 0 -5.91,0.07 l -33.45,64.9 c -1.23,2.39 1.44,4.88 4.18,3.89 l 13.47,-4.82 c 0,0.18 0.21,0.34 0.55,0.48 v 4.71 a 200.76,200.76 0 0 0 8.6,44.19 C 504.3,214.04 481.11,190.39 457.45,166.27 q -4.92,-5 -9.85,-10 C 511.11,93.3 578.29,37.34 659.15,37.34 c 86.08,0 146.21,53.89 146.21,131 0,36.09 -13.61,68.81 -38.36,92.2 z" class="cls-1" style="fill:none"/></clipPath></defs><title id="title3812">LoopArtboard 1</title><g id="g3820" class="cls-2" clip-path="url(#clip-path)" transform="translate(-3.3,-2.21)"><polygon id="polygon3814" points="-147.2 -241.68 -89.44 -241.68 266.47 -241.68 266.47 461.56 -89.44 461.56 -147.2 461.56" class="cls-3" style="fill:#3973b8;stroke:#3973b8;stroke-width:9.68000031px;stroke-miterlimit:10"/><rect id="rect3816" width="297.36" height="703.24" x="281.06" y="-241.5" class="cls-4" style="fill:#eb6608;stroke:#eb6608;stroke-width:8.14999962px;stroke-miterlimit:10"/><polygon id="polygon3818" points="947.19 -241.37 1006.67 -241.68 1006.67 461.74 947.19 461.65 593 461.43 593 -241.59" class="cls-5" style="fill:#aeca37;stroke:#aeca37;stroke-width:9.81999969px;stroke-miterlimit:10"/></g><rect style="fill:#a54ccf;fill-opacity:1;stroke:none;stroke-width:12.52268887;stroke-linecap:round;stroke-linejoin:round;stroke-miterlimit:4.5;stroke-dasharray:none;stroke-opacity:1;paint-order:normal" id="rect4659" width="837" height="35" x="-838" y="-402.34" rx="17.966" ry="17.5" transform="scale(-1)"/><ellipse id="ellipse1" cx="184.997" cy="388.011" fill="#fff" fill-opacity=".8" stroke="none" stroke-width="0" rx="152.005" ry="53.002"/></svg>