<svg xmlns="http://www.w3.org/2000/svg" xmlns:xlink="http://www.w3.org/1999/xlink" width="338" height="178" version="1.1" viewBox="0 0 338 178"><title>Untitled 3</title><g id="Page-1" fill="none" fill-rule="evenodd" stroke="none" stroke-width="1"><g id="loop-labels-path" transform="translate(1.000000, 0.000000)"><path id="Path" fill="#231F20" fill-rule="nonzero" d="M221.19,85.48 C221.19,85.48 222.78,109.23 245.29,131.74"/><path id="Path" stroke="#231F20" stroke-linecap="round" stroke-width="15.72" d="M221.19,85.48 C221.19,85.48 222.78,109.23 245.29,131.74"/><path id="Path" fill="#E2128D" fill-rule="nonzero" d="M246.18,121.71 C243.72,120.59 241.18,119.33 238.6,117.95 C231.272349,113.973739 224.159167,109.61437 217.29,104.89 C206.69,97.68 196.62,89.89 188.74,83.54 C185.44,80.87 182.53,78.45 180.12,76.41 C182.12,74.71 184.47,72.76 187.12,70.61 C192.39,66.32 198.77,61.28 205.72,56.16 C210.93,52.32 216.45,48.43 222.04,44.78 C229.750885,39.6373452 237.829312,35.0683714 246.21,31.11 L246.21,12.24 C245.32,12.58 244.43,12.91 243.54,13.24 C239.061071,15.075395 234.681698,17.1449158 230.42,19.44 C222.541007,23.6980274 214.893582,28.3712682 207.51,33.44 C196.36,41.03 185.95,49.06 177.8,55.65 C173.8,58.92 170.28,61.83 167.55,64.16 C162.55,59.86 154.91,53.56 145.95,46.72 C142.119116,43.9131842 136.746554,44.6880643 133.864953,48.4630162 C130.983352,52.237968 131.65244,57.624728 135.37,60.58 C143.28,66.58 150.13,72.25 154.96,76.34 C152.96,78.03 150.61,79.99 147.96,82.13 C142.7,86.43 136.31,91.47 129.37,96.59 C124.16,100.43 118.63,104.31 113.04,107.97 C105.184132,113.224327 96.9365782,117.867964 88.37,121.86 C84.8861831,123.463443 81.2858771,124.800604 77.6,125.86 C74.8914346,126.670524 72.0864786,127.114474 69.26,127.18 C50.9248975,127.43714 33.8714489,117.80277 24.6288642,101.965575 C15.3862795,86.12838 15.3862795,66.54162 24.6288642,50.704425 C33.8714489,34.8672304 50.9248975,25.2328599 69.26,25.49 C71.4343538,25.5318812 73.5974458,25.8135862 75.71,26.33 C80.0843431,27.4235195 84.3438159,28.9337571 88.43,30.84 C93.4424842,33.131707 98.3294007,35.6886592 103.07,38.5 C107.176166,40.5836922 112.194758,39.1156598 114.530656,35.147543 C116.866554,31.1794261 115.714597,26.0789966 111.9,23.5 L111.9,23.5 C104.96569,19.3372776 97.7130884,15.7293676 90.21,12.71 C86.7741041,11.3490619 83.2450576,10.2362092 79.65,9.38 C76.2467043,8.5566107 72.7612499,8.1205096 69.26,8.08 C44.6672015,7.7823861 21.814089,20.7319512 9.43097387,41.9817223 C-2.9521413,63.231493 -2.9521413,89.498507 9.43097387,110.748278 C21.814089,131.998049 44.6672015,144.947614 69.26,144.65 C71.8332339,144.634166 74.3999797,144.389873 76.93,143.92 C81.9380464,142.948988 86.8335561,141.467938 91.54,139.5 C96.0198999,137.663077 100.399367,135.590173 104.66,133.29 C112.540294,129.034234 120.187837,124.360921 127.57,119.29 C138.73,111.71 149.14,103.68 157.28,97.09 C161.28,93.82 164.8,90.9 167.53,88.58 C169.87,90.58 172.76,92.99 176.08,95.7 C181.52,100.14 188.08,105.35 195.35,110.7 C200.77,114.7 206.56,118.77 212.48,122.64 C221.102724,128.392138 230.152404,133.476941 239.55,137.85 C241.78,138.85 243.99,139.77 246.19,140.59 L246.19,121.71 L246.18,121.71 Z"/><path id="Path" fill="#5E4FA1" fill-rule="nonzero" d="M31.14,133 C42.4151582,140.624442 55.7189414,144.689777 69.33,144.670239 C71.9014962,144.675021 74.4683213,144.450801 77,144 C81.0936972,143.218924 85.1095978,142.074392 89,140.58 L89,121.67 L88.42,121.93 C84.932828,123.533632 81.3291841,124.870791 77.64,125.93 C74.934654,126.739643 72.1331201,127.183583 69.31,127.25 C50.9748975,127.50714 33.9214489,117.87277 24.6788642,102.035575 C15.4362795,86.19838 15.4362795,66.61162 24.6788642,50.774425 C33.9214489,34.9372304 50.9748975,25.3028599 69.31,25.56 C70.840304,25.5750893 72.3662651,25.7256775 73.87,26.01 C77.7025232,26.7744847 81.4481519,27.9236355 85.05,29.44 C86.34,29.96 87.66,30.53 89,31.14 L89,12.27 C86.75,11.43 84.51,10.69 82.28,10.08 C78.0564547,8.8311729 73.6836068,8.1584271 69.28,8.08 C39.2470621,8.0765927 12.7380587,27.6976876 3.96818688,56.421662 C-4.80168498,85.145637 6.22691231,116.227539 31.14,133 L31.14,133 Z"/><path id="Path" fill="#E2128D" fill-rule="nonzero" d="M224.38,62.8 C222.64,59.91 219.79,59.91 218.05,62.8 L207.55,80.25 C205.81,83.15 207.15,85.52 210.55,85.52 L231.92,85.52 C235.3,85.52 236.64,83.15 234.92,80.25 L224.42,62.8 L224.38,62.8 Z"/><path id="Path" fill="#E2128D" fill-rule="nonzero" d="M126.59,38.16 C123.09,37.6 121.27,39.86 122.59,43.16 L131.25,65.38 C132.53,68.68 135.41,69.12 137.63,66.38 L152.5,47.91 C154.72,45.14 153.68,42.44 150.17,41.91 L126.62,38.21 L126.59,38.16 Z"/><path id="Path" fill="#E2128D" fill-rule="nonzero" d="M221.19,85 C221.19,85 222.78,108.75 245.29,131.25"/><path id="Path" stroke="#E2128D" stroke-linecap="round" stroke-width="15.72" d="M221.19,85 C221.19,85 222.78,108.75 245.29,131.25"/><path id="Path" fill="#F36D3E" fill-rule="nonzero" d="M304,19.79 C292.720834,12.1739542 279.419689,8.1094254 265.81,8.11993848 C263.240078,8.1358463 260.676654,8.3801414 258.15,8.85 C254.05773,9.6370775 250.042353,10.7814598 246.15,12.27 L246.15,31.14 L246.73,30.88 C250.217172,29.2763683 253.820816,27.9392092 257.51,26.88 C260.21645,26.0752153 263.017332,25.6313782 265.84,25.56 C284.175102,25.3028599 301.228551,34.9372304 310.471136,50.774425 C319.713721,66.61162 319.713721,86.19838 310.471136,102.035575 C301.228551,117.87277 284.175102,127.50714 265.84,127.25 C264.309429,127.239907 262.78302,127.089275 261.28,126.8 C257.451786,126.035932 253.709762,124.89021 250.11,123.38 C248.82,122.86 247.5,122.28 246.11,121.67 L246.11,140.55 C248.37,141.39 250.61,142.12 252.83,142.74 C257.053759,143.987873 261.426476,144.660599 265.83,144.74015 C295.886667,144.77628 322.43225,125.153701 331.213442,96.40835 C339.994635,67.662999 328.946017,36.5560603 304,19.79 L304,19.79 Z"/><path id="Path" stroke="#F36D3E" stroke-width=".52" d="M304,19.79 C292.720834,12.1739542 279.419689,8.1094254 265.81,8.11993848 C263.240078,8.1358463 260.676654,8.3801414 258.15,8.85 C254.05773,9.6370775 250.042353,10.7814598 246.15,12.27 L246.15,31.14 L246.73,30.88 C250.217172,29.2763683 253.820816,27.9392092 257.51,26.88 C260.21645,26.0752153 263.017332,25.6313782 265.84,25.56 C284.175102,25.3028599 301.228551,34.9372304 310.471136,50.774425 C319.713721,66.61162 319.713721,86.19838 310.471136,102.035575 C301.228551,117.87277 284.175102,127.50714 265.84,127.25 C264.309429,127.239907 262.78302,127.089275 261.28,126.8 C257.451786,126.035932 253.709762,124.89021 250.11,123.38 C248.82,122.86 247.5,122.28 246.11,121.67 L246.11,140.55 C248.37,141.39 250.61,142.12 252.83,142.74 C257.053759,143.987873 261.426476,144.660599 265.83,144.74015 C295.886667,144.77628 322.43225,125.153701 331.213442,96.40835 C339.994635,67.662999 328.946017,36.5560603 304,19.79 L304,19.79 Z"/><line id="Path" x1="8.11" x2="327.27" y1="168.16" y2="168.16" stroke="#2F2E7D" stroke-linecap="round" stroke-width="18.22"/><circle id="Oval" cx="33" cy="31" r="31" fill="#FFF" fill-opacity=".8"/></g></g></svg>