<svg xmlns="http://www.w3.org/2000/svg" xmlns:xlink="http://www.w3.org/1999/xlink" width="215" height="207" version="1.1" viewBox="0 0 215 207"><title>Shape</title><defs><linearGradient id="linearGradient-1" x1=".494%" x2="99.71%" y1="50%" y2="50%"><stop offset="0%" stop-color="#242582"/><stop offset=".714%" stop-color="#242582"/><stop offset="28.96%" stop-color="#5E3DC4"/><stop offset="54.94%" stop-color="#A14599"/><stop offset="78.51%" stop-color="#E30F8D"/><stop offset="99.64%" stop-color="#F64C72"/><stop offset="100%" stop-color="#F64C72"/></linearGradient></defs><g id="Page-1" fill="none" fill-rule="evenodd" stroke="none" stroke-width="1"><g id="OpenPracticeLibrary_logo" fill="url(#linearGradient-1)" fill-rule="nonzero"><path id="Shape" d="M94.93,191.62 C91.56,194.99 91.56,200.46 94.93,203.83 C98.3,207.2 103.77,207.2 107.14,203.83 C110.51,200.46 110.51,194.99 107.14,191.62 C105.46,189.93 103.25,189.09 101.04,189.09 C98.83,189.09 96.62,189.93 94.93,191.62 M126.47,189.37 C123.28,192.56 123.28,197.73 126.47,200.92 C129.66,204.11 134.83,204.11 138.02,200.92 C141.21,197.73 141.21,192.56 138.02,189.37 C136.43,187.77 134.34,186.98 132.24,186.98 C130.14,186.98 128.06,187.77 126.47,189.37 M63.91,184.19 C60.36,187.74 60.36,193.5 63.91,197.06 C67.46,200.61 73.22,200.61 76.78,197.06 C80.33,193.51 80.33,187.74 76.78,184.19 C75,182.41 72.68,181.529917 70.35,181.529917 C68.01,181.52 65.68,182.41 63.91,184.19 M155.74,178.12 C152.73,181.13 152.73,186.01 155.74,189.02 C158.75,192.03 163.63,192.03 166.64,189.02 C169.65,186.01 169.65,181.13 166.64,178.12 C165.13,176.62 163.16,175.86 161.19,175.86 C159.22,175.86 157.24,176.61 155.74,178.12 M36.17,166.42 C32.44,170.15 32.44,176.21 36.17,179.94 C39.9,183.67 45.96,183.67 49.69,179.94 C53.42,176.21 53.42,170.15 49.69,166.42 C47.82,164.55 45.38,163.619921 42.93,163.619921 C40.48,163.61 38.04,164.55 36.17,166.42 M179.96,158.52 C177.13,161.35 177.13,165.93 179.96,168.76 C182.79,171.59 187.37,171.59 190.2,168.76 C193.03,165.93 193.03,161.35 190.2,158.52 C188.79,157.11 186.93,156.4 185.08,156.4 C183.22,156.4 181.37,157.11 179.96,158.52 M111.51,143.54 C108.8,146.25 108.8,150.64 111.51,153.34 C114.22,156.05 118.61,156.05 121.31,153.34 C124.02,150.63 124.02,146.24 121.31,143.54 C119.96,142.19 118.18,141.51 116.41,141.51 C114.64,141.51 112.86,142.19 111.51,143.54 M84.57,141.28 C82.06,143.79 82.06,147.87 84.57,150.38 C87.08,152.89 91.16,152.89 93.67,150.38 C96.18,147.86 96.18,143.79 93.67,141.28 C92.41,140.02 90.77,139.39 89.12,139.39 C87.47,139.39 85.82,140.02 84.57,141.28 M15.94,140.01 C12.02,143.93 12.02,150.27 15.94,154.19 C19.85,158.11 26.2,158.11 30.12,154.19 C34.04,150.28 34.04,143.93 30.12,140.01 C28.16,138.05 25.6,137.07 23.03,137.07 C20.46,137.07 17.9,138.06 15.94,140.01 M137.35,135.35 C134.45,138.25 134.45,142.95 137.35,145.85 C140.25,148.75 144.95,148.75 147.85,145.85 C150.75,142.95 150.75,138.25 147.85,135.35 C146.4,133.9 144.5,133.17 142.6,133.17 C140.7,133.17 138.8,133.9 137.35,135.35 M196.85,130.75 C194.2,133.4 194.2,137.69 196.85,140.33 C199.5,142.98 203.79,142.98 206.44,140.33 C209.09,137.69 209.09,133.39 206.44,130.75 C205.12,129.43 203.38,128.76 201.65,128.76 C199.91,128.76 198.18,129.42 196.85,130.75 M60.92,128.3 C58.6,130.62 58.6,134.38 60.92,136.7 C63.24,139.02 67,139.02 69.32,136.7 C71.64,134.38 71.64,130.62 69.32,128.3 C68.16,127.14 66.64,126.56 65.12,126.56 C63.6,126.56 62.08,127.14 60.92,128.3 M157.84,116.78 C154.75,119.87 154.75,124.89 157.84,127.98 C160.93,131.07 165.95,131.07 169.04,127.98 C172.13,124.89 172.13,119.87 169.04,116.78 C167.49,115.23 165.46,114.46 163.44,114.46 C161.42,114.46 159.38,115.23 157.84,116.78 M5.33,109.18 C1.23,113.28 1.23,119.92 5.33,124.02 C9.43,128.12 16.07,128.12 20.17,124.02 C24.27,119.92 24.27,113.28 20.17,109.18 C18.12,107.13 15.44,106.11 12.75,106.11 C10.06,106.11 7.38,107.13 5.33,109.18 M44.55,106.18 C42.42,108.31 42.42,111.76 44.55,113.88 C46.68,116.01 50.13,116.01 52.25,113.88 C54.38,111.75 54.38,108.31 52.25,106.18 C51.19,105.12 49.79,104.59 48.4,104.59 C47,104.59 45.61,105.12 44.55,106.18 M203.87,99.54 C201.41,102.01 201.41,106 203.87,108.47 C206.33,110.93 210.33,110.93 212.8,108.47 C215.27,106 215.27,102.01 212.8,99.54 C211.57,98.31 209.95,97.69 208.34,97.69 C206.71,97.69 205.1,98.3 203.87,99.54 M167.59,90.13 C164.3,93.42 164.3,98.75 167.59,102.03 C170.88,105.32 176.21,105.32 179.49,102.03 C182.78,98.74 182.78,93.41 179.49,90.13 C177.85,88.49 175.69,87.66 173.54,87.66 C171.39,87.66 169.23,88.49 167.59,90.13 M39.25,81.53 C37.32,83.46 37.32,86.6 39.25,88.53 C41.18,90.46 44.32,90.46 46.25,88.53 C48.18,86.6 48.18,83.46 46.25,81.53 C45.28,80.56 44.02,80.08 42.75,80.08 C41.49,80.08 40.22,80.56 39.25,81.53 M3.41,78.99 C-0.87,83.27 -0.87,90.2 3.41,94.48 C7.69,98.76 14.63,98.76 18.9,94.48 C23.18,90.2 23.18,83.27 18.9,78.99 C16.76,76.85 13.96,75.78 11.15,75.78 C8.35,75.78 5.55,76.85 3.41,78.99 M201.17,68.53 C198.89,70.81 198.89,74.52 201.17,76.8 C203.45,79.08 207.16,79.08 209.44,76.8 C211.72,74.52 211.72,70.81 209.44,68.53 C208.3,67.39 206.8,66.82 205.3,66.82 C203.8,66.82 202.31,67.38 201.17,68.53 M165.18,62.21 C161.7,65.69 161.7,71.33 165.18,74.81 C168.66,78.29 174.3,78.29 177.78,74.81 C181.26,71.33 181.26,65.69 177.78,62.21 C176.04,60.47 173.76,59.6 171.48,59.6 C169.2,59.6 166.92,60.47 165.18,62.21 M46.36,56.97 C44.62,58.71 44.62,61.53 46.36,63.27 C48.1,65.01 50.92,65.01 52.66,63.27 C54.4,61.53 54.4,58.71 52.66,56.97 C51.79,56.1 50.65,55.66 49.51,55.66 C48.37,55.67 47.23,56.1 46.36,56.97 M11.61,48.84 C7.15,53.3 7.15,60.53 11.61,64.99 C16.07,69.45 23.3,69.45 27.76,64.99 C32.22,60.53 32.22,53.3 27.76,48.84 C25.53,46.61 22.61,45.5 19.68,45.5 C16.76,45.5 13.84,46.61 11.61,48.84 M188.96,41.33 C186.86,43.43 186.86,46.84 188.96,48.95 C191.06,51.05 194.47,51.05 196.58,48.95 C198.68,46.85 198.68,43.44 196.58,41.33 C195.53,40.28 194.15,39.75 192.77,39.75 C191.39,39.75 190.01,40.28 188.96,41.33 M63.01,36.92 C61.46,38.47 61.46,40.97 63.01,42.52 C64.56,44.07 67.06,44.07 68.61,42.52 C70.16,40.97 70.16,38.46 68.61,36.92 C67.84,36.15 66.82,35.76 65.81,35.76 C64.8,35.76 63.79,36.15 63.01,36.92 M153.75,37.06 C150.08,40.73 150.08,46.69 153.75,50.36 C157.42,54.03 163.38,54.03 167.05,50.36 C170.72,46.69 170.72,40.73 167.05,37.06 C165.21,35.22 162.81,34.3 160.4,34.3 C158,34.31 155.59,35.23 153.75,37.06 M29.56,23.87 C24.92,28.51 24.92,36.03 29.56,40.67 C34.2,45.31 41.72,45.31 46.37,40.67 C51.01,36.03 51.01,28.51 46.37,23.87 C44.05,21.55 41.01,20.39 37.97,20.39 C34.92,20.39 31.88,21.55 29.56,23.87 M167.62,17.93 C165.7,19.85 165.7,22.97 167.62,24.89 C169.54,26.81 172.66,26.81 174.58,24.89 C176.5,22.97 176.5,19.85 174.58,17.93 C173.62,16.97 172.36,16.49 171.1,16.49 C169.84,16.49 168.58,16.97 167.62,17.93 M134.72,18.41 C130.85,22.28 130.85,28.55 134.72,32.42 C138.59,36.29 144.86,36.29 148.73,32.42 C152.6,28.55 152.6,22.28 148.73,18.41 C146.8,16.48 144.26,15.51 141.73,15.51 C139.19,15.51 136.66,16.47 134.72,18.41 M54.53,8.48 C50.08,12.93 50.08,20.14 54.53,24.59 C58.98,29.04 66.19,29.04 70.63,24.59 C75.08,20.14 75.08,12.93 70.63,8.48 C68.41,6.26 65.49,5.14993304 62.58,5.14993304 C59.67,5.14 56.75,6.25 54.53,8.48 M110.21,6.02 C106.15,10.08 106.15,16.66 110.21,20.72 C114.27,24.78 120.85,24.78 124.91,20.72 C128.97,16.66 128.97,10.08 124.91,6.02 C122.88,3.99 120.22,2.97 117.56,2.97 C114.9,2.98 112.24,3.99 110.21,6.02 M142.42,2.39 C140.68,4.13 140.68,6.95 142.42,8.69 C144.16,10.43 146.98,10.43 148.72,8.69 C150.46,6.95 150.46,4.13 148.72,2.39 C147.85,1.52 146.71,1.08 145.57,1.08 C144.43,1.08 143.29,1.52 142.42,2.39 M90.56,0.17 C87.8,0.17 85.04,1.22 82.93,3.33 C78.71,7.55 78.71,14.38 82.93,18.6 C87.14,22.81 93.98,22.81 98.19,18.6 C102.41,14.39 102.41,7.55 98.19,3.33 C96.08,1.23 93.32,0.17 90.56,0.17 Z"/></g></g></svg>